SplineFontDB: 3.2
FontName: spetekmyo
FullName: spetekmyo
FamilyName: spetekmyo
Weight: Thin
Copyright: Copyright (c) 2022, ongki
UComments: "2022-12-21: Created with FontForge (http://fontforge.org)"
Version: 001.000
ItalicAngle: 0
UnderlinePosition: -926
UnderlineWidth: 66
Ascent: 1505
Descent: 543
InvalidEm: 0
LayerCount: 3
Layer: 0 0 "Arri+AOgA-re" 1
Layer: 1 0 "Avant" 0
Layer: 2 0 "Arri+AOgA-re 2" 1
XUID: [1021 35 -771139627 1796]
StyleMap: 0x0000
FSType: 0
OS2Version: 0
OS2_WeightWidthSlopeOnly: 0
OS2_UseTypoMetrics: 1
CreationTime: 1671615915
ModificationTime: 1717886753
PfmFamily: 17
TTFWeight: 100
TTFWidth: 5
LineGap: 127
VLineGap: 0
OS2TypoAscent: 0
OS2TypoAOffset: 1
OS2TypoDescent: 0
OS2TypoDOffset: 1
OS2TypoLinegap: 127
OS2WinAscent: 0
OS2WinAOffset: 1
OS2WinDescent: 0
OS2WinDOffset: 1
HheadAscent: 0
HheadAOffset: 1
HheadDescent: 0
HheadDOffset: 1
OS2Vendor: 'PfEd'
Lookup: 1 0 0 "delete" { "delete"  } []
Lookup: 1 0 0 "skip" { } []
Lookup: 2 0 0 "duplicate" { "duplicate"  } []
Lookup: 2 0 0 "separate" { "separate"  } []
Lookup: 1 0 0 "flip" { "flip"  } []
Lookup: 4 0 0 ">>CLUSTERING<<" { ">>CLUSTERING<<"  } [' RQD' ('DFLT' <'dflt' > 'latn' <'dflt' > ) ]
Lookup: 2 0 0 ">>COMPOUND<<" { ">>COMPOUND<<"  } [' RQD' ('DFLT' <'dflt' > 'latn' <'dflt' > ) ]
Lookup: 4 0 0 ">>MARK_MERGING<<" { ">>ACCENT_MERGING<<"  } [' RQD' ('DFLT' <'dflt' > 'latn' <'dflt' > ) ]
Lookup: 5 0 0 ">>SYLLABLE_SPLITTING<<" { "separating"  } [' RQD' ('DFLT' <'dflt' > 'latn' <'dflt' > ) ]
Lookup: 6 0 0 ">>FLIP-DUPE<<" { "dup_fn"  "flip_u"  "flip_b"  } [' RQD' ('DFLT' <'dflt' > 'grek' <'dflt' > 'latn' <'dflt' > ) ]
Lookup: 2 0 0 "L.large" { "L.large"  } []
Lookup: 1 0 0 "L.small" { "L.small"  } []
Lookup: 6 0 0 ">>L_POSITIONING<<" { ">>L_POSITIONING<<"  } [' RQD' ('DFLT' <'dflt' > 'latn' <'dflt' > ) ]
Lookup: 1 0 0 "top_accent" { "top_accent"  } []
Lookup: 1 0 0 "bottom_accent" { "bottom_accent"  } []
Lookup: 2 0 0 "o_C__" { "o_C__"  } []
Lookup: 2 0 0 "a_C__" { "a_C__"  } []

StartChar: a
Encoding: 97 97 0
Width: 1462
VWidth: 2450
Flags: HW
HStem: 0 22G<44 344 1115 1422> 0 22G<44 344 1115 1422> 290 253<556 902> 1290 20G<593 874>
LayerCount: 3
Fore
SplineSet
1422 0 m 1xb0
 1123 0 l 1
 1005 290 l 1
 455 290 l 1
 336 0 l 1
 44 0 l 1
 601 1309 l 1
 865 1309 l 1
 1422 0 l 1xb0
902 544 m 1
 729 964 l 1
 556 544 l 1
 902 544 l 1
EndSplineSet
Validated: 1
MultipleSubs2: "chain.c" chain.a.c
MultipleSubs2: "separate" a space.none
MultipleSubs2: "layer.go_far_up" a layer.go_far_up
MultipleSubs2: "layer.go_mid" tail.a layer.go_mid
MultipleSubs2: "consonnant.a" n join.a.top join.a.bottom
MultipleSubs2: "chain.f2" a join.a.bottom
MultipleSubs2: "chain.n" a join.a.bottom
MultipleSubs2: "chain.o" chain.a.o
MultipleSubs2: "layer.go_up" a layer.go_up
MultipleSubs2: "chain.b" a f
Substitution2: "chain.u2.vowel" chain.u2.a
MultipleSubs2: "duplicate" a a
Substitution2: "tail.vowels" tail.a
MultipleSubs2: "head" head.a a
Substitution2: "delete" space.none
EndChar

StartChar: o
Encoding: 111 111 1
Width: 1337
VWidth: 1178
Flags: W
HStem: -18 220<497.647 826.414> 886 220<497.877 823.198>
VStem: 82 250<375.351 711.887> 988 250<365.316 712.794>
LayerCount: 3
Fore
SplineSet
1238 545 m 2
 1238 235 995 -18 659 -18 c 0
 323 -18 82 231 82 541 c 2
 82 545 l 2
 82 855 326 1106 662 1106 c 0
 998 1106 1238 856 1238 546 c 2
 1238 545 l 2
988 541 m 2
 988 545 l 2
 988 732 851 886 659 886 c 0
 467 886 332 733 332 546 c 2
 332 545 l 2
 332 358 470 202 662 202 c 0
 854 202 988 354 988 541 c 2
EndSplineSet
Validated: 1
MultipleSubs2: "chain.c" chain.o.c
MultipleSubs2: "separate" o space.none
MultipleSubs2: "layer.go_mid" o layer.go_mid
MultipleSubs2: "layer.go_far_up" o layer.go_far_up
MultipleSubs2: "chain.f" o join.o.top
MultipleSubs2: "chain.n" o join.o.top
MultipleSubs2: "layer.go_up" o layer.go_up
MultipleSubs2: "chain.b" tail.o
MultipleSubs2: "chain.a" chain.o.a
Substitution2: "tail.vowels" tail.o
MultipleSubs2: "head" head.o o
Substitution2: "delete" space.none
EndChar

StartChar: e
Encoding: 101 101 2
Width: 1251
VWidth: 1407
Flags: HW
HStem: 0 255<439 1145> 528 255<439 1053> 1045 255<439 1135>
VStem: 157 284<255 528 780 1045>
LayerCount: 3
Fore
SplineSet
1145 0 m 1
 157 0 l 1
 157 1299 l 1
 1135 1299 l 1
 1135 1045 l 1
 439 1045 l 1
 439 780 l 1
 1053 780 l 1
 1053 528 l 1
 439 528 l 1
 439 255 l 1
 1145 255 l 1
 1145 0 l 1
EndSplineSet
Validated: 1
MultipleSubs2: "chain.t" F
MultipleSubs2: "chain.c" F join.a.bottom
MultipleSubs2: "separate" e space.none
MultipleSubs2: "chain.f2" F
MultipleSubs2: "layer.go_mid" e layer.go_mid
MultipleSubs2: "layer.go_far_up" e layer.go_far_up
MultipleSubs2: "head_e" head.a
MultipleSubs2: "chain.n" F
MultipleSubs2: "chain.u" F join.a.bottom
MultipleSubs2: "chain.s" F
MultipleSubs2: "chain.o" F
MultipleSubs2: "chain.b" join.e.bottom layer.go_down
MultipleSubs2: "chain.a" F join.a.bottom
MultipleSubs2: "head" head.a e
MultipleSubs2: "duplicate" e e
Substitution2: "delete" space.none
Substitution2: "tail.vowels" tail.e
EndChar

StartChar: i
Encoding: 105 105 3
Width: 729
VWidth: 1407
GlyphClass: 2
Flags: W
HStem: 137 275<294.181 434.224> 590 275<294.18 434.224>
VStem: 0 276<430.181 570.82> 453 276<430.181 570.82>
LayerCount: 3
Fore
SplineSet
621 244 m 0
 555 178 457 137 365 137 c 0
 273 137 174 178 108 244 c 0
 42 310 0 409 0 501 c 0
 0 593 42 692 108 758 c 0
 174 824 273 865 365 865 c 0
 457 865 555 824 621 758 c 0
 687 692 729 593 729 501 c 0
 729 409 687 310 621 244 c 0
276 501 m 0
 276 479 285 453 301 437 c 0
 317 421 343 412 365 412 c 0
 387 412 410 421 426 437 c 0
 442 453 453 479 453 501 c 0
 453 523 442 547 426 563 c 0
 410 579 387 590 364 590 c 0
 341 590 317 579 301 563 c 0
 285 547 276 523 276 501 c 0
EndSplineSet
Validated: 1
Position2: "s_n_prefix" dx=92 dy=780 dh=500 dv=0
MultipleSubs2: "separate" i space.none
Position2: "go_up_O" dx=0 dy=1380 dh=0 dv=0
MultipleSubs2: "layer.go_up" i layer.go_up
Position2: "go_far_up" dx=0 dy=1040 dh=0 dv=0
MultipleSubs2: "layer.go_far_up" i layer.go_far_up
Position2: "go_mid" dx=0 dy=1040 dh=0 dv=0
MultipleSubs2: "layer.go_mid" i layer.go_mid
Position2: "f_accent_fix" dx=-220 dy=250 dh=0 dv=0
Position2: "f2_accent_fix" dx=-220 dy=90 dh=0 dv=0
Substitution2: "bottom_accent" bottom.j
Substitution2: "top_accent" top.j
Position2: "t_prefix" dx=0 dy=1391 dh=150 dv=0
Position2: "k_prefix" dx=651 dy=1207 dh=0 dv=0
Position2: "t_middle_prefix" dx=0 dy=927 dh=0 dv=0
Position2: "f_prefix" dx=148 dy=278 dh=0 dv=0
Position2: "n_prefix" dx=92 dy=780 dh=0 dv=0
MultipleSubs2: "extend.n" top.j n
MultipleSubs2: "extend.f" top.j f
MultipleSubs2: "extend.F" top.j F
Substitution2: "delete" space.none
EndChar

StartChar: s
Encoding: 115 115 5
Width: 1232
VWidth: 1407
Flags: W
HStem: -18 252<396.087 781.224> 937 21G<850 921.674> 1065 252<426.889 779.901>
VStem: 118 284<856.35 1030.08> 811 285<271.86 448.195>
LayerCount: 3
Fore
SplineSet
1096 384 m 2
 1096 127 898 -18 618 -18 c 0
 421 -18 223 50 66 189 c 1
 235 391 l 1
 352 294 476 234 624 234 c 0
 741 234 811 281 811 356 c 2
 811 360 l 2
 811 433 768 470 550 525 c 0
 288 591 118 667 118 924 c 2
 118 926 l 2
 118 1161 305 1317 572 1317 c 0
 761 1317 922 1258 1055 1152 c 1
 908 937 l 1
 792 1017 680 1065 571 1065 c 0
 462 1065 402 1016 402 953 c 2
 402 949 l 2
 402 864 457 835 682 778 c 0
 945 709 1096 614 1096 388 c 2
 1096 384 l 2
EndSplineSet
Validated: 1
MultipleSubs2: "o_C__" below.s
MultipleSubs2: "a_C__" below.s
MultipleSubs2: "chain.s" double.s
Substitution2: "tail.vowels" tail.s
MultipleSubs2: "__C" above.s
Substitution2: "adjust.double" double.s
Substitution2: "delete" space.none
EndChar

StartChar: f
Encoding: 102 102 6
Width: 780
VWidth: 1407
Flags: W
HStem: 670 370<0 780>
AnchorPoint: "top" 727 1486 basechar 0
AnchorPoint: "i" 1173 1280 basechar 0
LayerCount: 3
Fore
SplineSet
780 1041 m 1
 780 670 l 5
 0 670 l 1
 0 1040 l 1
 780 1041 l 1
EndSplineSet
MultipleSubs2: "duplicate" f f
Substitution2: "delete" space.none
Position2: "spacing_to_tail.a" dx=-50 dy=0 dh=-50 dv=0
Position2: "spacing_from_head.a" dx=0 dy=0 dh=-50 dv=0
MultipleSubs2: "o_C__" F
Position2: "go_up_F" dx=0 dy=630 dh=0 dv=0
Position2: "go_far_up" dx=0 dy=1040 dh=0 dv=0
MultipleSubs2: "layer.go_far_up" f layer.go_far_up
MultipleSubs2: "layer.go_up" f layer.go_up
Position2: "go_up_O" dx=0 dy=630 dh=0 dv=0
MultipleSubs2: "tail.extend" f f
MultipleSubs2: "consonnant.o" f join.o.top
MultipleSubs2: "lowtail" F
MultipleSubs2: "consonnant.u" f join.o.top
MultipleSubs2: "consonnant.c" f join.c.top_left
EndChar

StartChar: n
Encoding: 110 110 7
Width: 727
VWidth: 1407
Flags: HW
HStem: 0 370<0 927> 669 371<0 927>
VStem: 0 927<0 370 669 1040>
AnchorPoint: "top" 727 1486 basechar 0
LayerCount: 3
Fore
SplineSet
727 1040 m 5
 727 669 l 1
 0 669 l 1
 0 1040 l 1
 727 1040 l 5
727 370 m 1
 727 0 l 1
 0 0 l 1
 0 370 l 1
 727 370 l 1
EndSplineSet
MultipleSubs2: "duplicate" n n
LCarets2: 1 0
Ligature2: ">>CLUSTERING<<" n n
MultipleSubs2: "tail.extend" n n
MultipleSubs2: "chain.b" n f
Position2: "go_down" dx=0 dy=-669 dh=0 dv=0
MultipleSubs2: "consonnant.u" n join.o.top join.a.bottom
MultipleSubs2: "consonnant.c" n join.o.top join.a.bottom
Ligature2: ">>CLUSTERING<<" m
MultipleSubs2: "consonnant.o" n join.o.top
MultipleSubs2: "consonnant.a" n join.a.bottom
EndChar

StartChar: b
Encoding: 98 98 8
Width: 1407
VWidth: 1407
Flags: W
HStem: 0 251<434 927.745> 535 239<434 863.673> 1049 250<434 866.199>
VStem: 157 277<251 535 774 1049> 904 284<814.794 1009.27> 976 285<292.456 487.628>
LayerCount: 3
Fore
SplineSet
1261 356 m 2xf4
 1261 119 1067 0 774 0 c 2
 157 0 l 1
 157 1299 l 1
 760 1299 l 2
 1027 1299 1188 1166 1188 963 c 2
 1188 958 l 2xf8
 1188 812 1109 732 1017 679 c 1
 1168 622 1261 534 1261 360 c 2
 1261 356 l 2xf4
904 909 m 2
 904 915 l 2
 904 1000 837 1049 717 1049 c 2
 434 1049 l 1
 434 774 l 1
 697 774 l 2
 824 774 904 812 904 909 c 2
976 391 m 2xf4
 976 396 l 2
 976 483 910 535 764 535 c 2
 434 535 l 1
 434 251 l 1
 774 251 l 2
 901 251 976 294 976 391 c 2xf4
EndSplineSet
Validated: 1
MultipleSubs2: "layer.go_down" layer.go_down b
MultipleSubs2: "chain.c" chain.o.c
MultipleSubs2: "chain.b" tail.o
Substitution2: "flip" B
MultipleSubs2: "separate" b space.none
MultipleSubs2: "chain.f" b join.o.top
MultipleSubs2: "chain.n" b join.o.top
MultipleSubs2: "chain.a" chain.o.a
Substitution2: "tail.vowels" tail.o
MultipleSubs2: "head" head.b b
EndChar

StartChar: p
Encoding: 112 112 9
Width: 1350
VWidth: 1407
Flags: W
HStem: 0 21G<157 443> 390 254<443 815.045> 1042 257<443 822.994>
VStem: 157 286<0 390 644 1042> 895 288<718.444 969.495>
LayerCount: 3
Fore
SplineSet
1183 846 m 2
 1183 546 949 390 659 390 c 2
 443 390 l 1
 443 0 l 1
 157 0 l 1
 157 1299 l 1
 687 1299 l 2
 997 1299 1183 1118 1183 851 c 2
 1183 846 l 2
895 841 m 2
 895 845 l 2
 895 973 806 1042 663 1042 c 2
 443 1042 l 1
 443 644 l 1
 669 644 l 2
 812 644 895 730 895 841 c 2
EndSplineSet
Validated: 1
MultipleSubs2: "separate" p space.none
MultipleSubs2: "chain.f2" p join.a.bottom
MultipleSubs2: "chain.f" chain.p
MultipleSubs2: "chain.n" p join.a.bottom
MultipleSubs2: "head" head.a p
MultipleSubs2: "chain.a" chain.p
MultipleSubs2: "chain.b" chain.p
MultipleSubs2: "duplicate" p p
Substitution2: "tail.vowels" tail.p
EndChar

StartChar: k
Encoding: 107 107 10
Width: 2457
VWidth: 1407
Flags: W
HStem: 0 21G<0 926>
AnchorPoint: "top" 1964 813 basechar 0
LayerCount: 3
Fore
SplineSet
0 0 m 0
 1938 2080 l 0
 2457 2080 l 1
 926 370 l 1
 926 0 l 0
 0 0 l 0
EndSplineSet
Validated: 5
MultipleSubs2: "lowtail" tail.k
MultipleSubs2: ">>COMPOUND<<" k f
MultipleSubs2: "tail.extend" k F
MultipleSubs2: "consonnant.o" k
MultipleSubs2: "consonnant.c" head.k.a join.c.top_left
MultipleSubs2: "consonnant.a" head.k.a
EndChar

StartChar: t
Encoding: 116 116 12
Width: 2080
VWidth: 1407
Flags: W
HStem: 0 21G<157 175.49> 0 21G<157 175.49> 1715 365<0 1196>
LayerCount: 3
Fore
SplineSet
0 2080 m 5xa0
 2080 2080 l 1
 157 0 l 1
 157 624 l 1
 1196 1715 l 1
 0 1715 l 1
 0 2080 l 5xa0
EndSplineSet
Validated: 1
MultipleSubs2: "o_C__" middle.t
MultipleSubs2: "lowtail" F chain.f2.t
MultipleSubs2: "consonnant.u2" head.t.u
MultipleSubs2: "consonnant.o" head.t.o
MultipleSubs2: "consonnant.c" head.t.c head.c
MultipleSubs2: "consonnant.b" head.t.b
MultipleSubs2: "consonnant.a" head.t.a
MultipleSubs2: "hightail" f tail.t
EndChar

StartChar: NameMe.244
Encoding: 266 -1 15
Width: 446
VWidth: 1320
Flags: W
HStem: 0.354492 21G<373.333 448> 0.354492 21G<373.333 448> 540.354 20G<0 224>
VStem: 0 224<362.485 560.354>
LayerCount: 3
Fore
SplineSet
0 560.354492188 m 1xb0
 74.671875 560.354492188 74.671875 560.354492188 121.328125 560.354492188 c 0
 168 560.354492188 168 560.354492188 224 560.354492188 c 1
 224 448.354492188 242.666992188 364.354492188 280 308.354492188 c 0
 317.333007812 252.354492188 373.333007812 224.354492188 448 224.354492188 c 1
 448 0.3544921875 l 1
 298.666992188 0.3544921875 186.666992188 42.3544921875 112 126.354492188 c 0
 37.3330078125 210.354492188 0 355.021484375 0 560.354492188 c 1xb0
EndSplineSet
Validated: 1
EndChar

StartChar: a.tail
Encoding: 267 -1 16
Width: 418
VWidth: 1320
Flags: W
HStem: 0 21G<0 74.6665> 0 21G<0 74.6665> 540 20G<196 420>
VStem: 196 224<347.146 560>
LayerCount: 3
Fore
SplineSet
196 560 m 5xb0
 420 560 l 5
 420 354.666992188 387.333007812 210 322 126 c 4
 256.666992188 42 149.333007812 0 0 0 c 5
 0 224 l 5
 71.8125 224 122.432617188 252 151.859375 308 c 4
 181.286132812 364 196 448 196 560 c 5xb0
EndSplineSet
Validated: 1
EndChar

StartChar: head.a
Encoding: 266 -1 17
Width: 780
VWidth: 2450
Flags: HW
HStem: 0 370<566 780> 1016 24G<0 370>
VStem: 0 370<586 1040>
LayerCount: 3
Fore
SplineSet
0 1040 m 1
 139 1040 139 1040 225 1040 c 0
 311 1040 267 1040 370 1040 c 5
 370 832 386 626 455 523 c 0
 524 420 641 370 780 370 c 1
 780 0 l 1
 453 0 304 92 174 240 c 0
 29 404 0 660 0 1040 c 1
EndSplineSet
Validated: 1
Position2: "move.push_all" dx=-300 dy=0 dh=-300 dv=0
Position2: "go_mid" dx=0 dy=1040 dh=0 dv=0
MultipleSubs2: "layer.go_up" head.a layer.go_up
Position2: "go_up_F" dx=0 dy=1300 dh=0 dv=0
Position2: "go_up_O" dx=0 dy=1340 dh=0 dv=0
Position2: "go_far_up" dx=0 dy=1040 dh=0 dv=0
EndChar

StartChar: tail.a
Encoding: 267 -1 18
Width: 780
VWidth: 2450
Flags: HMW
HStem: 0 38G<32 170> 0 38G<32 170> 1002 37G<396 811> 1290 111
VStem: 396 416<644 1040>
AnchorPoint: "bottom" 1 -404 basechar 0
LayerCount: 3
Fore
SplineSet
410 1040 m 1xa8
 780 1040 l 1
 780 660 724 408 602 251 c 0
 480 94 305 0 0 0 c 1
 0 370 l 1
 146 374 267 443 321 546 c 0
 375 649 410 832 410 1040 c 1xa8
EndSplineSet
Validated: 1
Position2: "spacing_to_tail.a" dx=-20 dy=0 dh=-20 dv=0
Position2: "go_mid" dx=0 dy=1040 dh=0 dv=0
Position2: "spacing_from_head.a" dx=0 dy=0 dh=-360 dv=0
Position2: "go_up_O" dx=0 dy=1340 dh=0 dv=0
Position2: "go_far_up" dx=0 dy=1040 dh=0 dv=0
Position2: "go_down" dx=0 dy=-669 dh=0 dv=0
EndChar

StartChar: tail.p
Encoding: 268 -1 19
Width: 919
VWidth: 2450
Flags: HW
HStem: 0 416<139 360> 906 341<316 461>
AnchorPoint: "bottom" 139 -370 basechar 0
AnchorPoint: "top" 167 1390 basechar 0
LayerCount: 3
Fore
SplineSet
919 709 m 0
 919 501 839 331 700 192 c 0
 561 53 380 0 139 0 c 1
 139 370 l 1
 242 370 356 408 425 465 c 0
 491 520 553 636 553 739 c 0
 553 801 502 885 427 892 c 0
 425 892 423 892 421 892 c 0
 364 892 278 810 278 743 c 1
 0 743 l 1
 1 886 47 1018 121 1103 c 0
 180 1170 289 1229 461 1229 c 0
 462 1229 465 1229 466 1229 c 0
 644 1228 734 1164 820 1061 c 0
 906 958 919 848 919 709 c 0
EndSplineSet
Validated: 1
EndChar

StartChar: chain.a.o
Encoding: 269 -1 20
Width: 1160
VWidth: 2450
Flags: HW
HStem: 1 414<1 213> 624 416<890 1159>
AnchorPoint: "bottom" 0 -370 basechar 0
AnchorPoint: "top" 0 1401 basechar 0
LayerCount: 3
Fore
SplineSet
0 370 m 0
 84 370 168 397 228 428 c 0
 294 461 347 545 380 614 c 0
 449 753 528 858 669 927 c 0
 811 996 982 1040 1160 1040 c 1
 1160 669 l 0
 1057 669 961 637 888 604 c 0
 815 571 762 485 729 416 c 0
 660 277 567 180 445 111 c 0
 323 42 172 0 0 0 c 1
 0 370 l 0
EndSplineSet
Validated: 1
EndChar

StartChar: head.o
Encoding: 270 -1 21
Width: 780
VWidth: 2450
Flags: HW
HStem: 0 38G<0 414> 0 38G<0 414> 1002 37G<711 833>
VStem: 0 412<0 353>
AnchorPoint: "top" 1219 1368 basechar 0
LayerCount: 3
Fore
SplineSet
0 0 m 1xb0
 0 380 77 649 234 806 c 0
 391 963 539 1040 780 1040 c 1
 780 669 l 1
 646 668 527 559 474 474 c 4
 409 371 374 241 370 0 c 0
 0 0 l 1xb0
EndSplineSet
Validated: 1
Position2: "go_mid" dx=0 dy=1040 dh=0 dv=0
Position2: "go_far_up" dx=0 dy=1040 dh=0 dv=0
Position2: "go_up_O" dx=0 dy=1340 dh=0 dv=0
EndChar

StartChar: tail.o
Encoding: 271 -1 22
Width: 780
VWidth: 2450
Flags: W
HStem: 0 21G<410 780> 0 21G<410 780> 669 371<0 201.58>
VStem: 410 370<0 408.021>
AnchorPoint: "bottom" 10 -408 basechar 0
AnchorPoint: "top" 10 1401 basechar 0
LayerCount: 3
Fore
SplineSet
410 0 m 1xb0
 410 208 373 389 329 480 c 0
 278 585 176 669 0 669 c 1
 0 1040 l 1
 241 1040 433 963 572 806 c 0
 711 649 780 380 780 0 c 1
 410 0 l 1xb0
EndSplineSet
Validated: 1
Position2: "spacing_from_head.o" dx=0 dy=0 dh=-370 dv=0
Position2: "go_mid" dx=0 dy=1040 dh=0 dv=0
Position2: "go_up_O" dx=0 dy=1340 dh=0 dv=0
Position2: "go_down" dx=0 dy=-669 dh=0 dv=0
Position2: "go_far_up" dx=0 dy=1040 dh=0 dv=0
EndChar

StartChar: chain.o.a
Encoding: 272 -1 23
Width: 1160
VWidth: 2450
Flags: W
HStem: 0 370<947.642 1160> 670 370<0 198.691>
AnchorPoint: "bottom" 0 -359 basechar 0
AnchorPoint: "top" 0 1413 basechar 0
LayerCount: 3
Fore
SplineSet
379 428 m 0
 346 497 292 581 226 614 c 0
 166 644 108 670 26 670 c 0
 18 670 10 669 0 669 c 0
 0 1040 l 1
 172 1040 323 999 445 930 c 0
 567 861 658 765 727 626 c 0
 760 557 815 470 888 437 c 0
 961 404 1057 370 1160 370 c 0
 1160 0 l 1
 982 0 810 43 668 112 c 0
 527 181 448 289 379 428 c 0
EndSplineSet
Validated: 1
Position2: "spacing_to_tail.o" dx=-20 dy=0 dh=-20 dv=0
Position2: "go_down" dx=0 dy=-669 dh=0 dv=0
EndChar

StartChar: tail.e
Encoding: 274 -1 24
Width: 624
VWidth: 2450
Flags: HW
HStem: 0 416<0 384>
VStem: 0 624<129 416>
AnchorPoint: "top" 0 1401 basechar 0
AnchorPoint: "bottom" 0 -408 basechar 0
LayerCount: 3
Fore
SplineSet
624 157 m 0
 495 82 347 39 261 22 c 0
 175 5 103 0 0 0 c 1
 0 370 l 1
 69 370 147 376 237 386 c 0
 327 396 457 425 624 474 c 1
 624 157 l 0
EndSplineSet
Validated: 1
EndChar

StartChar: chain.c.a
Encoding: 275 -1 25
Width: 570
VWidth: 2450
Flags: HW
HStem: 0 38G<-205 -157> 0 38G<-205 -157>
VStem: 191 293<648 776>
LayerCount: 3
Fore
SplineSet
79 1010 m 0
 144 937 168 885 225 697 c 0
 284 501 379 370 570 370 c 1
 570 0 l 1
 448 0 339 15 245 51 c 0
 154 84 68 143 0 203 c 1
 79 1010 l 0
EndSplineSet
Validated: 1
Position2: "spacing_to_tail.c" dx=-200 dy=0 dh=-200 dv=0
EndChar

StartChar: chain.a.c
Encoding: 276 -1 26
Width: 572
VWidth: 2450
Flags: HW
HStem: 0 38G<0 48> 0 38G<0 48>
VStem: 396 293<648 776>
LayerCount: 3
Fore
SplineSet
492 1010 m 0
 572 203 l 1
 504 143 418 84 327 51 c 0
 233 15 122 0 0 0 c 1
 0 370 l 1
 191 370 288 501 347 697 c 0
 404 885 427 937 492 1010 c 0
EndSplineSet
Validated: 1
Position2: "spacing_from_head.c" dx=0 dy=0 dh=-200 dv=0
EndChar

StartChar: head.b
Encoding: 277 -1 27
Width: 624
VWidth: 2450
Flags: HW
HStem: 0 416<0 384>
VStem: 0 624<129 416>
LayerCount: 3
Fore
SplineSet
0 883 m 0
 129 958 279 1000 365 1017 c 0
 451 1034 521 1040 624 1040 c 1
 624 669 l 1
 555 669 475 663 385 653 c 0
 295 643 167 612 0 563 c 1
 0 883 l 0
EndSplineSet
Validated: 1
EndChar

StartChar: head.c
Encoding: 279 -1 28
Width: 632
VWidth: 2450
Flags: W
HStem: 0 21G<546 632> 0 21G<546 632> 1242 20G<546 632>
VStem: 0 370<485.783 780.357>
LayerCount: 3
Fore
SplineSet
632 0 m 5xb0
 460 0 286 66 164 188 c 4
 42 310 0 457 0 621 c 4
 0 803 50 949 172 1071 c 4
 294 1193 460 1262 632 1262 c 5
 632 890 l 5
 566 890 495 857 451 813 c 4
 404 766 370 697 370 632 c 4
 370 567 404 498 451 451 c 4
 498 404 567 370 632 370 c 5
 632 0 l 5xb0
EndSplineSet
Validated: 1
EndChar

StartChar: tail.c
Encoding: 280 -1 29
Width: 632
VWidth: 2450
Flags: HW
VStem: 3723 6772<-22134 -17268>
AnchorPoint: "bottom" 1 -404 basechar 0
LayerCount: 3
Fore
SplineSet
0 0 m 1
 0 370 l 1
 65 370 135 404 182 451 c 0
 229 498 261 567 261 632 c 0
 261 697 229 766 182 813 c 0
 138 857 66 890 0 890 c 1
 0 1262 l 1
 172 1262 337 1193 459 1071 c 0
 581 949 632 803 632 621 c 0
 632 457 590 310 468 188 c 0
 346 66 172 0 0 0 c 1
EndSplineSet
Validated: 1
EndChar

StartChar: c
Encoding: 99 99 30
Width: 1392
VWidth: 2450
Flags: HW
HStem: -22 263<590 981> 909 38G<1055 1139> 1059 263<581 976>
VStem: 98 299<445 863>
LayerCount: 3
Fore
SplineSet
1298 209 m 1
 1164 66 1015 -22 764 -22 c 0
 382 -22 98 274 98 647 c 2
 98 651 l 2
 98 1021 376 1322 776 1322 c 0
 1021 1322 1168 1240 1288 1122 c 1
 1107 909 l 1
 1007 1000 903 1059 774 1059 c 0
 555 1059 397 876 397 653 c 2
 397 651 l 2
 397 428 551 241 774 241 c 0
 922 241 1014 300 1116 392 c 1
 1298 209 l 1
EndSplineSet
Validated: 1
MultipleSubs2: "chain.b" tail.c join.c.top_right f
MultipleSubs2: "separate" c space.none
MultipleSubs2: "chain.f2" c join.a.bottom
MultipleSubs2: "chain.f" c join.c.top_right
MultipleSubs2: "chain.n" c join.a.bottom join.o.top
MultipleSubs2: "chain.s" c below.c.s
MultipleSubs2: "chain.o" c chain.c.o
MultipleSubs2: "chain.a" tail.c chain.c.a
Substitution2: "tail.vowels" tail.c
MultipleSubs2: "head" head.c c
EndChar

StartChar: middle.t.a
Encoding: 304 -1 31
Width: 2080
VWidth: 2450
Flags: W
HStem: 0 370<923.551 1101> 1300 21G<0 212.188> 1300 21G<0 212.188>
VStem: 374 414<499.353 912.79>
LayerCount: 3
Fore
SplineSet
0 1670 m 5xd0
 2080 1876 l 0
 1866 1773 1591 1626 1333 1454 c 0
 1075 1282 915 1103 835 900 c 0
 808 831 788 751 788 676 c 0
 788 643 794 610 802 578 c 0
 831 475 934 370 1098 370 c 0
 1098 370 1100 370 1101 370 c 1
 1101 0 l 1
 860 0 690 69 568 172 c 0
 446 275 374 421 374 629 c 0
 374 768 389 866 440 988 c 0
 491 1110 576 1261 679 1364 c 1
 0 1300 l 1
 0 1670 l 5xd0
EndSplineSet
Validated: 1
Position2: "spacing_from_head.a" dx=0 dy=0 dh=-1000 dv=0
EndChar

StartChar: above.s
Encoding: 342 -1 32
Width: 370
VWidth: 2450
Flags: HW
HStem: 1486 593<0 370>
VStem: 0 370<1486 2080>
LayerCount: 3
Fore
SplineSet
370 2080 m 1
 370 1480 l 5
 0 1480 l 5
 0 2080 l 1
 370 2080 l 1
EndSplineSet
Validated: 1
MultipleSubs2: "tail.extend" above.s middle.s below.s
MultipleSubs2: "lowtail" tail.s
MultipleSubs2: "consonnant.u" space.u above.s middle.s
MultipleSubs2: "consonnant.u2" above.s middle.s middle.u
MultipleSubs2: "consonnant.b" above.s middle.s middle.b
Position2: "move.q" dx=500 dy=0 dh=500 dv=0
MultipleSubs2: "consonnant.a" above.s middle.s
MultipleSubs2: "consonnant.c" above.s middle.s below.s.c
MultipleSubs2: "consonnant.o" above.s middle.s
Substitution2: "tail.sp" tail.s.p
MultipleSubs2: "hightail" below.s
EndChar

StartChar: above.k
Encoding: 343 -1 33
Width: 1859
VWidth: 2450
Flags: HW
HStem: 1123 38G<165 1386>
LayerCount: 3
Fore
SplineSet
0 1781 m 1
 970 2542 l 1
 1526 2542 l 1
 970 2108 l 1
 1860 2189 l 4
 1857 1986 l 5
 0 1781 l 1
EndSplineSet
Validated: 1
EndChar

StartChar: ks
Encoding: 344 -1 34
Width: 2067
VWidth: 2450
Flags: HW
HStem: -18 252<1315 1590> 0 38G<157 443 968 1337> 0 38G<157 443 968 1337> 937 38G<1659 1742> 1065 252<1284 1585> 1262 37G<157 443 935 1315>
VStem: 157 287<0 397 731 1299> 1621 284<272 449>
LayerCount: 3
Fore
SplineSet
2283 374 m 2x9b
 2283 117 2085 -27 1805 -27 c 0
 1608 -27 1412 40 1255 179 c 1
 1422 382 l 1
 1539 285 1663 225 1811 225 c 0
 1928 225 1999 272 1999 347 c 2
 1999 351 l 2
 1999 424 1955 461 1737 516 c 0
 1475 582 1305 657 1305 914 c 2
 1305 915 l 2
 1305 1150 1493 1307 1760 1307 c 0
 1949 1307 2111 1249 2244 1143 c 1
 2095 927 l 1
 1979 1007 1866 1055 1757 1055 c 0
 1648 1055 1591 1006 1591 943 c 2
 1591 939 l 2
 1591 854 1645 825 1870 768 c 0
 2133 699 2283 605 2283 379 c 2
 2283 374 l 2x9b
1337 0 m 1x57
 996 0 l 1
 592 553 l 1
 443 397 l 1
 443 0 l 1
 157 0 l 1
 157 1299 l 1
 443 1299 l 1
 443 731 l 1
 969 1299 l 1
 1315 1299 l 1
 786 748 l 1
 1337 0 l 1x57
EndSplineSet
Validated: 1
MultipleSubs2: "consonnant.c" above.k.s middle.s below.s.c
MultipleSubs2: "tail.extend" above.k.s middle.s below.s
MultipleSubs2: "consonnant.a" above.k.s middle.s.round.head.a
LCarets2: 1 0
Ligature2: ">>CLUSTERING<<" k s
EndChar

StartChar: above.ts
Encoding: 345 -1 35
Width: 301
VWidth: 2450
Flags: W
HStem: 1017 21G<305 675> 1707 373<0 890>
LayerCount: 3
Fore
SplineSet
0 2080 m 1
 1976 2080 l 1
 675 1096 l 1
 675 1017 l 2
 305 1019 l 1
 305 1299 l 0
 890 1707 l 1
 0 1707 l 4
 0 2080 l 1
EndSplineSet
Validated: 1
EndChar

StartChar: double.s
Encoding: 347 -1 36
Width: 499
VWidth: 2450
Flags: HW
HStem: 0 38G<519 935> 0 38G<519 935>
VStem: 0 416<1091 2443> 519 416<0 2080>
LayerCount: 3
Fore
SplineSet
370 2443 m 1
 370 1091 l 1
 0 1091 l 1
 0 2443 l 1
 370 2443 l 1
EndSplineSet
Validated: 1
LCarets2: 1 0
EndChar

StartChar: head.k.a
Encoding: 383 -1 37
Width: 1835
VWidth: 2450
Flags: W
LayerCount: 3
Fore
SplineSet
0 669 m 1
 1352 2080 l 0
 1835 2080 l 1
 900 1040 l 0
 1040 1040 l 0
 1040 669 l 5
 0 669 l 1
EndSplineSet
Validated: 1
EndChar

StartChar: head.t.o
Encoding: 385 -1 38
Width: 1082
VWidth: 2450
Flags: HW
HStem: 0 38G<157 589> 0 38G<157 589> 1715 365<0 1196>
VStem: 157 416<0 214>
LayerCount: 3
Fore
SplineSet
1196 1715 m 5
 572 1715 l 2
 0 1714 l 1
 0 2080 l 0
 2080 2080 l 1xb0
 1091 1040 l 0
 1091 669 l 1
 952 669 804 601 718 498 c 0
 632 395 561 208 528 0 c 1
 157 0 l 1
 189 311 274 592 414 833 c 0
 554 1074 834 1368 1196 1715 c 5
EndSplineSet
Validated: 1
EndChar

StartChar: head.t.b
Encoding: 386 -1 39
Width: 1082
VWidth: 2450
Flags: HW
HStem: -70991 93137<-52181 253816>
LayerCount: 3
Fore
SplineSet
724 669 m 0
 519 1040 l 0
 1178 1707 l 1
 0 1707 l 1
 0 2080 l 4
 2080 2080 l 1
 1096 1040 l 0
 1096 669 l 1
 724 669 l 0
EndSplineSet
Validated: 1
EndChar

StartChar: middle.t.o
Encoding: 306 -1 40
Width: 2080
VWidth: 2450
Flags: HW
HStem: 0 21G<176 563.5> 0 21G<176 563.5> 1299 21G<0 179.833> 1299 21G<0 179.833>
VStem: 176 371<0 218.322>
LayerCount: 3
Fore
SplineSet
1079 1419 m 1xa8
 0 1300 l 1
 0 1670 l 0
 2080 1876 l 1
 1160 963 l 0
 1091 669 l 1
 961 669 829 603 743 500 c 0
 657 397 580 208 547 0 c 1
 176 0 l 1
 208 311 283 618 589 945 c 0
 1079 1419 l 1xa8
EndSplineSet
Validated: 1
EndChar

StartChar: middle.s.round.head.a
Encoding: 307 -1 41
Width: 751
VWidth: 2450
Flags: W
HStem: 0 370<561.084 751>
VStem: 0 409<520.979 978.12>
LayerCount: 3
Fore
SplineSet
330 1494 m 1
 696 1494 l 1
 508 1151 409 884 409 708 c 0
 409 689 411 671 413 654 c 0
 433 488 579 370 751 370 c 1
 751 0 l 1
 440 0 229 101 101 301 c 0
 34 405 0 526 0 662 c 0
 0 799 35 954 104 1128 c 1
 330 1494 l 1
EndSplineSet
Validated: 1
Position2: "spacing_from_head.a" dx=0 dy=0 dh=-20 dv=0
MultipleSubs2: "chain.f" middle.s
EndChar

StartChar: F
Encoding: 352 -1 42
Width: 727
VWidth: 1407
Flags: W
HStem: 0 370<0 727>
AnchorPoint: "top" 927 846 basechar 0
AnchorPoint: "i" 593 855 basechar 0
LayerCount: 3
Fore
SplineSet
727 370 m 1
 727 0 l 1
 0 0 l 1
 0 370 l 1
 727 370 l 1
EndSplineSet
Substitution2: "delete" space.none
Position2: "go_far_up" dx=0 dy=1040 dh=0 dv=0
Position2: "spacing_to_tail.o" dx=-50 dy=0 dh=-50 dv=0
Position2: "spacing_from_head.o" dx=0 dy=0 dh=-50 dv=0
Position2: "go_down" dx=0 dy=-669 dh=0 dv=0
MultipleSubs2: "tail.extend" F F
MultipleSubs2: "consonnant.a" F join.a.bottom
MultipleSubs2: "consonnant.u" F join.a.bottom
MultipleSubs2: "consonnant.c" F join.a.bottom
EndChar

StartChar: v
Encoding: 118 118 43
Width: 1416
VWidth: 1407
Flags: HW
HStem: 0 38G<0 414 1196 1611> 0 38G<0 414 1196 1611> 624 416<644 1025>
VStem: 0 412<0 353> 1196 416<0 408>
LayerCount: 3
Fore
SplineSet
1347 1299 m 1
 823 -10 l 1
 571 -10 l 1
 44 1299 l 1
 360 1299 l 1
 700 384 l 1
 1040 1299 l 1
 1347 1299 l 1
EndSplineSet
Validated: 1
EndChar

StartChar: u
Encoding: 117 117 44
Width: 1411
VWidth: 2450
Flags: HW
HStem: -20 263<529 878> 1262 37G<135 421 981 1268>
VStem: 135 287<362 1299> 981 287<353 1299>
LayerCount: 3
Fore
SplineSet
1268 566 m 2
 1268 174 1045 -20 697 -20 c 0
 349 -20 135 174 135 556 c 2
 135 1299 l 1
 421 1299 l 1
 421 563 l 2
 421 351 528 244 702 244 c 0
 876 244 981 348 981 555 c 2
 981 1299 l 1
 1268 1299 l 1
 1268 566 l 2
EndSplineSet
Validated: 1
MultipleSubs2: "chain.c" chain.u.c join.c.top_left
Substitution2: "flip" U
MultipleSubs2: "head" head.u e
EndChar

StartChar: tail.b2
Encoding: 287 -1 46
Width: 611
VWidth: 2450
Flags: HW
HStem: 0 416<0 384>
VStem: 0 624<129 416>
LayerCount: 3
Fore
SplineSet
624 883 m 4
 495 958 345 1000 259 1017 c 4
 173 1034 103 1040 0 1040 c 5
 0 669 l 5
 69 669 149 663 239 653 c 4
 329 643 457 612 624 563 c 5
 624 883 l 4
EndSplineSet
EndChar

StartChar: top.j
Encoding: 494 -1 47
Width: 730
VWidth: 1407
GlyphClass: 2
Flags: HW
HStem: 137 275<294.68 435.32> 590 275<294.68 435.32>
VStem: 0 275<430.181 570.82> 455 275<430.181 570.82>
LayerCount: 3
Fore
SplineSet
622 244 m 0
 556 178 457 137 365 137 c 0
 273 137 174 178 108 244 c 0
 42 310 0 409 0 501 c 0
 0 593 42 692 108 758 c 0
 174 824 273 865 365 865 c 0
 457 865 556 824 622 758 c 0
 688 692 730 593 730 501 c 0
 730 409 688 310 622 244 c 0
275 501 m 0
 275 479 286 453 302 437 c 0
 318 421 343 412 365 412 c 0
 387 412 412 421 428 437 c 0
 444 453 455 479 455 501 c 0
 455 523 444 547 428 563 c 0
 412 579 388 590 365 590 c 0
 342 590 318 579 302 563 c 0
 286 547 275 523 275 501 c 0
EndSplineSet
Validated: 1
Position2: "go_mid" dx=0 dy=1040 dh=0 dv=0
Position2: "accent_c_fix" dx=-150 dy=200 dh=0 dv=0
Position2: "move.ksa" dx=380 dy=0 dh=0 dv=0
Position2: "move.kjc" dx=500 dy=0 dh=0 dv=0
Position2: "move.sjc" dx=160 dy=0 dh=0 dv=0
Position2: "move.push_all" dx=-300 dy=0 dh=-300 dv=0
Position2: "f_accent_fix" dx=200 dy=1040 dh=-730 dv=0
Position2: "accent_t_fix" dx=650 dy=0 dh=0 dv=0
Position2: "accent_u_fix" dx=0 dy=200 dh=0 dv=0
Position2: "vhead_topfix" dx=423 dy=964 dh=-730 dv=0
Position2: "vchain.topfix" dx=-423 dy=964 dh=-730 dv=0
Position2: "f2_accent_fix" dx=200 dy=360 dh=-730 dv=0
MultipleSubs2: "layer.go_up" top.j layer.go_up
EndChar

StartChar: top.h
Encoding: 499 -1 49
Width: 365
VWidth: 1407
GlyphClass: 4
UnlinkRmOvrlpSave: 1
Flags: W
HStem: 0 21G<0 365>
VStem: 0 365<0 850>
LayerCount: 3
Fore
SplineSet
0 850 m 5
 365 850 l 5
 365 0 l 1
 0 0 l 1
 0 850 l 5
EndSplineSet
Position2: "accent_c_fix" dx=-150 dy=200 dh=0 dv=0
Position2: "vhead_topfix" dx=604 dy=1225 dh=-365 dv=0
Position2: "vchain.topfix" dx=-185 dy=1225 dh=0 dv=0
EndChar

StartChar: l.large
Encoding: 501 -1 51
Width: 1560
VWidth: 2450
GlyphClass: 4
Flags: HW
HStem: 0 261<-37 1560>
LayerCount: 3
Fore
SplineSet
0 261 m 5
 1560 261 l 1
 1560 0 l 1
 0 0 l 5
 0 261 l 5
EndSplineSet
Validated: 1
Position2: "vhead_topfix" dx=0 dy=1170 dh=-1560 dv=0
Position2: "vchain.topfix" dx=-780 dy=1170 dh=-1580 dv=0
Position2: "vowel_ending_accent_fix" dx=-780 dy=-370 dh=0 dv=0
EndChar

StartChar: g
Encoding: 108 103 52
Width: 1441
VWidth: 2450
Flags: HW
HStem: -22 258<595 1017> 501 246<772 1060> 926 25G<1059 1129> 1059 263<590 992>
VStem: 98 299<442 850> 1060 276<284 501>
LayerCount: 3
Fore
SplineSet
1336 183 m 1
 1202 71 1017 -22 780 -22 c 0
 374 -22 98 263 98 647 c 2
 98 651 l 2
 98 1021 388 1322 780 1322 c 0
 1014 1322 1155 1260 1290 1144 c 1
 1109 926 l 1
 1009 1010 921 1059 770 1059 c 0
 562 1059 397 873 397 653 c 2
 397 651 l 2
 397 414 562 237 791 237 c 0
 894 237 987 263 1060 316 c 1
 1060 501 l 1
 772 501 l 1
 772 748 l 1
 1336 748 l 1
 1336 183 l 1
EndSplineSet
Validated: 1
MultipleSubs2: ">>COMPOUND<<" k n
MultipleSubs2: "consonnant.a" head.k.a mark.g.a join.a.top join.a.bottom head.a
EndChar

StartChar: l.small
Encoding: 502 -1 54
Width: 1250
VWidth: 2450
GlyphClass: 4
Flags: HW
HStem: 0 261<-19 1283>
LayerCount: 3
Fore
SplineSet
1250 261 m 1
 1250 0 l 1
 0 0 l 1
 0 261 l 1
 1250 261 l 1
EndSplineSet
Validated: 1
Position2: "accent_LcL_fix" dx=-170 dy=0 dh=0 dv=0
Position2: "accent_c_fix" dx=-170 dy=200 dh=0 dv=0
Position2: "vhead_topfix" dx=150 dy=1170 dh=-1250 dv=0
Position2: "vchain.topfix" dx=-650 dy=1170 dh=-1270 dv=0
Position2: "vowel_ending_accent_fix" dx=-780 dy=-370 dh=0 dv=0
EndChar

StartChar: top.y
Encoding: 506 -1 55
Width: 730
VWidth: 1407
Flags: HW
HStem: 137 274<-464 -337> 590 276<-464 -340>
VStem: -764 274<437 563> -313 274<437 563>
AnchorPoint: "top" 365 506 mark 0
LayerCount: 3
Fore
SplineSet
504 837 m 1
 590 801 665 727 701 641 c 0
 719 598 730 550 730 502 c 0
 730 453 719 405 701 362 c 0
 665 276 590 201 504 165 c 0
 461 147 413 139 365 139 c 0
 317 139 269 147 226 165 c 0
 140 201 65 276 29 362 c 0
 11 405 0 453 0 502 c 0
 0 550 11 598 29 641 c 0
 65 726 138 801 223 837 c 0
 224 837 326 595 332 584 c 1
 312 574 294 557 284 535 c 0
 274 513 277 487 284 467 c 0
 291 447 312 426 332 419 c 0
 352 412 381 412 401 419 c 0
 421 426 442 447 449 467 c 0
 456 487 456 515 449 535 c 0
 442 555 421 576 401 583 c 0
 406 597 504 837 504 837 c 1
EndSplineSet
Validated: 1
Position2: "accent_t_fix" dx=650 dy=0 dh=0 dv=0
Position2: "accent_c_fix" dx=-150 dy=200 dh=0 dv=0
Position2: "accent_u_fix" dx=0 dy=200 dh=0 dv=0
Position2: "vhead_topfix" dx=423 dy=964 dh=-730 dv=0
EndChar

StartChar: head.y
Encoding: 507 -1 56
Width: 700
VWidth: 1407
Flags: HW
HStem: 137 274<-1381 -1253> 590 276<-1379 -1255>
VStem: -1682 274<437 563> -1229 274<437 563>
LayerCount: 3
Fore
SplineSet
254 535 m 5
 254 535 75 610 18 633 c 4
 7 638 0 641 0 641 c 5
 1 642 1 646 2 647 c 4
 39 731 113 804 197 837 c 4
 283 873 391 873 477 837 c 4
 563 801 637 727 673 641 c 4
 709 555 709 448 673 362 c 4
 637 276 563 201 477 165 c 4
 391 129 283 129 197 165 c 4
 112 201 37 274 1 359 c 5
 1 359 65 387 130 414 c 4
 136 418 141 417 147 421 c 4
 201 444 249 463 254 467 c 5
 264 447 281 429 303 419 c 4
 325 409 351 412 371 419 c 4
 391 426 412 448 419 468 c 4
 426 488 426 515 419 535 c 4
 412 555 391 577 371 584 c 4
 351 591 323 591 303 584 c 4
 283 577 261 555 254 535 c 5
EndSplineSet
Validated: 33
Position2: "f_prefix" dx=148 dy=278 dh=0 dv=0
Position2: "n_prefix" dx=92 dy=780 dh=0 dv=0
Position2: "k_prefix" dx=651 dy=1207 dh=0 dv=0
Position2: "t_middle_prefix" dx=0 dy=927 dh=0 dv=0
Position2: "t_prefix" dx=0 dy=1391 dh=150 dv=0
EndChar

StartChar: tail.y
Encoding: 508 -1 57
Width: 1097
VWidth: 1407
Flags: W
HStem: 137 274<-1168 -1040> 590 276<-1166 -1042>
VStem: -1469 274<437 563> -1016 274<437 563>
LayerCount: 3
Fore
SplineSet
632 535 m 1
 632 535 811 610 868 633 c 0
 879 638 886 641 886 641 c 1
 885 642 885 646 884 647 c 0
 847 731 773 804 689 837 c 0
 603 873 495 873 409 837 c 0
 323 801 249 727 213 641 c 0
 177 555 177 448 213 362 c 0
 249 276 323 201 409 165 c 0
 495 129 603 129 689 165 c 0
 774 201 849 274 885 359 c 1
 885 359 821 387 756 414 c 0
 750 418 745 417 739 421 c 0
 685 444 637 463 632 467 c 1
 622 447 605 429 583 419 c 0
 561 409 535 412 515 419 c 0
 495 426 474 448 467 468 c 0
 460 488 460 515 467 535 c 0
 474 555 495 577 515 584 c 0
 535 591 563 591 583 584 c 0
 603 577 625 555 632 535 c 1
EndSplineSet
Validated: 41
EndChar

StartChar: m
Encoding: 109 109 58
Width: 1636
VWidth: 1407
Flags: HW
HStem: 0 365<0 898> 675 365<0 898>
VStem: 0 898<0 365 675 1040>
LayerCount: 3
Fore
SplineSet
1454 0 m 1
 1171 0 l 1
 1171 847 l 1
 806 293 l 1
 798 293 l 1
 437 843 l 1
 437 0 l 1
 157 0 l 1
 157 1299 l 1
 464 1299 l 1
 806 751 l 1
 1146 1299 l 1
 1454 1299 l 1
 1454 0 l 1
EndSplineSet
Validated: 1
EndChar

StartChar: y
Encoding: 104 121 59
Width: 700
VWidth: 1407
GlyphClass: 2
Flags: HW
HStem: 137 726<176.97 412>
VStem: 0 700
LayerCount: 3
Fore
SplineSet
446 467 m 1
 446 467 626 391 683 368 c 0
 694 363 700 362 700 362 c 1
 699 361 698 355 697 354 c 0
 660 270 588 198 504 165 c 0
 461 147 412 137 364 137 c 0
 316 137 267 147 224 165 c 0
 138 201 63 276 27 362 c 0
 9 405 0 454 0 502 c 0
 0 550 9 598 27 641 c 0
 63 727 138 801 224 837 c 0
 267 855 316 863 364 863 c 0
 412 863 461 855 504 837 c 0
 589 801 662 727 698 642 c 1
 698 642 634 616 569 589 c 0
 563 585 559 585 553 581 c 0
 499 558 451 539 446 535 c 1
 436 555 419 573 397 583 c 0
 375 593 348 590 328 583 c 0
 308 576 288 555 281 535 c 0
 274 515 274 487 281 467 c 0
 288 447 308 425 328 418 c 0
 348 411 377 411 397 418 c 0
 417 425 439 447 446 467 c 1
EndSplineSet
Validated: 1
MultipleSubs2: "separate" y space.none
Position2: "k_prefix" dx=651 dy=1207 dh=0 dv=0
Position2: "t_middle_prefix" dx=0 dy=927 dh=0 dv=0
Position2: "t_prefix" dx=0 dy=1391 dh=150 dv=0
Position2: "f_prefix" dx=148 dy=278 dh=0 dv=0
Position2: "n_prefix" dx=92 dy=780 dh=0 dv=0
Position2: "go_far_up" dx=0 dy=1040 dh=0 dv=0
MultipleSubs2: "layer.go_mid" y layer.go_mid
MultipleSubs2: "layer.go_far_up" y layer.go_far_up
MultipleSubs2: "layer.go_up" y layer.go_up
MultipleSubs2: "head" head.y
Substitution2: "delete" space.none
Substitution2: "top_accent" top.y
EndChar

StartChar: tail.iy
Encoding: 509 -1 60
Width: 0
VWidth: 1407
Flags: W
HStem: 137 274<-1168 -1040> 590 276<-1166 -1042>
VStem: -1469 274<437 563> -1016 274<437 563>
LayerCount: 3
Fore
SplineSet
83 535 m 1
 83 535 262 610 319 633 c 0
 330 638 337 641 337 641 c 1
 336 642 336 646 335 647 c 0
 298 731 224 804 140 837 c 0
 54 873 -54 873 -140 837 c 0
 -226 801 -300 727 -336 641 c 0
 -372 555 -372 448 -336 362 c 0
 -300 276 -226 201 -140 165 c 0
 -54 129 54 129 140 165 c 0
 225 201 300 274 336 359 c 1
 336 359 272 387 207 414 c 0
 201 418 196 417 190 421 c 0
 136 444 88 463 83 467 c 1
 73 447 56 429 34 419 c 0
 12 409 -14 412 -34 419 c 0
 -54 426 -75 448 -82 468 c 0
 -89 488 -89 515 -82 535 c 0
 -75 555 -54 577 -34 584 c 0
 -14 591 14 591 34 584 c 0
 54 577 76 555 83 535 c 1
257 1108 m 0
 191 1042 92 1001 0 1001 c 0
 -92 1001 -191 1042 -257 1108 c 0
 -323 1174 -365 1273 -365 1365 c 0
 -365 1457 -323 1556 -257 1622 c 0
 -191 1688 -92 1729 0 1729 c 0
 92 1729 191 1688 257 1622 c 0
 323 1556 365 1457 365 1365 c 0
 365 1273 323 1174 257 1108 c 0
-90 1365 m 0
 -90 1343 -79 1317 -63 1301 c 0
 -47 1285 -22 1276 0 1276 c 0
 22 1276 47 1285 63 1301 c 0
 79 1317 90 1343 90 1365 c 0
 90 1387 79 1411 63 1427 c 0
 47 1443 23 1454 0 1454 c 0
 -23 1454 -47 1443 -63 1427 c 0
 -79 1411 -90 1387 -90 1365 c 0
EndSplineSet
Validated: 41
EndChar

StartChar: mark.g.a
Encoding: 354 -1 61
Width: 470
VWidth: 2450
GlyphClass: 4
Flags: HW
HStem: 0 370<-255 473>
VStem: -255 727<0 370>
LayerCount: 3
Fore
SplineSet
473 0 m 1
 -255 0 l 1
 -255 370 l 5
 473 370 l 5
 473 0 l 1
EndSplineSet
Validated: 1
EndChar

StartChar: d
Encoding: 100 100 62
Width: 1596
VWidth: 1407
Flags: HW
HStem: 0 38G<200 232> 0 38G<200 232> 1715 365<43 1239> 2451 365<43 1811>
LayerCount: 3
Fore
SplineSet
1396 651 m 2
 1396 286 1114 0 706 0 c 2
 200 0 l 1
 200 1299 l 1
 706 1299 l 2
 1114 1299 1396 1018 1396 653 c 2
 1396 651 l 2
1097 647 m 2
 1097 651 l 2
 1097 880 940 1042 706 1042 c 2
 486 1042 l 1
 486 257 l 1
 706 257 l 2
 940 257 1097 418 1097 647 c 2
EndSplineSet
Validated: 1
MultipleSubs2: "tail.extend" above.d middle.t
MultipleSubs2: "consonnant.o" above.d middle.t.o
MultipleSubs2: "consonnant.a" above.d middle.t
MultipleSubs2: "lowtail" F top.d chain.f2.t
MultipleSubs2: "hightail" f top.d tail.t
MultipleSubs2: "__C" above.d middle.t
EndChar

StartChar: head.k.c
Encoding: 398 -1 63
Width: 1033
VWidth: 2450
Flags: HW
LayerCount: 3
Fore
SplineSet
1973 2080 m 1
 1047 1247 l 0
 1047 1065 l 0
 1047 935 l 5
 519 935 l 4
 0 935 l 1
 1453 2080 l 0
 1713 2080 l 0
 1973 2080 l 1
EndSplineSet
Validated: 1
EndChar

StartChar: head.k.o
Encoding: 357 -1 64
Width: 1253
VWidth: 2450
Flags: HW
LayerCount: 3
Fore
SplineSet
2286 2080 m 1
 935 365 l 1
 1454 365 l 1
 1454 0 l 1
 0 0 l 1
 1760 2080 l 1
 2286 2080 l 1
EndSplineSet
Validated: 1
EndChar

StartChar: chain.p
Encoding: 317 -1 65
Width: 891
VWidth: 2450
Flags: HW
HStem: 0 370<111 311.308> 669 557<304.489 480.556>
VStem: 481 410<526.398 669>
AnchorPoint: "top" 131 1390 basechar 0
LayerCount: 3
Fore
SplineSet
111 370 m 1
 207 370 306 398 372 445 c 0
 434 488 470 583 481 669 c 1
 414 656 355 650 302 650 c 0
 224 650 162 664 111 696 c 0
 56 732 1 825 0 909 c 0
 0 910 0 912 0 913 c 0
 0 993 48 1086 111 1133 c 0
 190 1190 275 1219 362 1225 c 0
 374 1226 385 1226 397 1226 c 0
 483 1226 568 1207 630 1178 c 0
 699 1146 750 1097 798 1040 c 0
 872 950 891 808 891 669 c 0
 891 505 797 314 677 194 c 0
 538 55 352 0 111 0 c 1
 111 370 l 1
EndSplineSet
EndChar

StartChar: tail.t
Encoding: 358 -1 66
Width: 926
VWidth: 1407
Flags: HW
HStem: 0 38G<-997 -963> 0 38G<-997 -963> 1715 365<-1152 43>
AnchorPoint: "top" -653 1466 basechar 0
LayerCount: 3
Fore
SplineSet
-122 1042 m 1xa0
 926 1040 l 1
 -794 -680 l 1
 -797 -80 l 1
 -71 676 l 1
 -122 678 l 1
 -122 1042 l 1xa0
EndSplineSet
Validated: 1
EndChar

StartChar: tail.k
Encoding: 359 -1 67
Width: 1660
VWidth: 1407
Flags: HW
HStem: 0 365<1130 2742>
LayerCount: 3
Fore
SplineSet
0 -350 m 1
 1209 1040 l 0
 1660 1040 l 1
 764 -20 l 1
 1634 -20 l 1
 1634 -350 l 1
 0 -350 l 1
EndSplineSet
Validated: 1
EndChar

StartChar: chain.f2.t
Encoding: 360 -1 68
Width: 438
VWidth: 1407
Flags: W
AnchorPoint: "top" -588 865 basechar 0
LayerCount: 3
Fore
SplineSet
-606 365 m 1
 439 365 l 1
 -766 -680 l 1
 -766 -160 l 1
 -574 0 l 1
 -606 0 l 1
 -606 365 l 1
EndSplineSet
Validated: 1
EndChar

StartChar: B
Encoding: 122 66 69
Width: 507
VWidth: 2450
Flags: HW
HStem: 678 362<0 392>
VStem: 0 392<679 1040>
LayerCount: 3
Fore
SplineSet
519 1040 m 1
 0 1040 l 1
 0 624 l 2
 0 624 345 626 519 610 c 1
 519 1040 l 1
EndSplineSet
Validated: 41
Substitution2: "flip" b
MultipleSubs2: "chain.s" f
MultipleSubs2: "chain.c" f join.c.top_left
MultipleSubs2: "chain.o" f join.o.top head.o
MultipleSubs2: "chain.f" f
MultipleSubs2: "head" head.o B
Substitution2: "delete" space.none
Substitution2: "tail.vowels" tail.b2
EndChar

StartChar: U
Encoding: 123 85 70
Width: 381
VWidth: 2450
Flags: HW
HStem: 678 361<0 392>
VStem: 0 392<679 1040>
LayerCount: 3
Fore
SplineSet
392 679 m 1
 116 678 l 0
 0 678 l 0
 0 1040 l 1
 392 1040 l 1
 392 679 l 1
EndSplineSet
Validated: 1
MultipleSubs2: "chain.s" F
MultipleSubs2: "chain.f2" U join.a.bottom
MultipleSubs2: "chain.f" U join.o.top
MultipleSubs2: "chain.n" U join.a.bottom join.o.top
Substitution2: "tail.vowels" tail.u2
MultipleSubs2: "head" u2.head U
EndChar

StartChar: head.n.u2
Encoding: 401 -1 71
Width: 1798
VWidth: 2450
Flags: HW
LayerCount: 3
Fore
SplineSet
-1 365 m 1
 156 365 328 363 519 353 c 0
 710 343 849 348 935 365 c 1
 935 243 935 122 935 0 c 0
 624 0 311 0 0 0 c 1
 0 80 -1 146 -1 197 c 0
 -1 248 -1 305 -1 365 c 1
0 675 m 1
 0 676 0 799 1 1040 c 1
 173 1040 351 1058 531 1095 c 0
 711 1132 845 1148 935 1144 c 0
 935 1022 935 902 935 780 c 1
 860 794 753 781 618 739 c 0
 483 697 278 675 0 675 c 1
EndSplineSet
Validated: 33
EndChar

StartChar: head.f.u2
Encoding: 402 -1 72
Width: 327
VWidth: 2450
Flags: HW
LayerCount: 3
Fore
SplineSet
702 675 m 4
 0 675 l 5
 0 1040 l 5
 1117 1040 l 5
 766 702 l 5
 1352 702 l 5
 1352 468 l 5
 1325 468 l 5
 1325 537 1275 591 1170 624 c 4
 1065 657 910 675 702 675 c 4
EndSplineSet
Validated: 1
EndChar

StartChar: tail.u2
Encoding: 233 -1 73
Width: 1410
VWidth: 2450
Flags: HW
HStem: 0 416<370 754>
VStem: 370 624<129 416>
AnchorPoint: "top" 370 1401 basechar 0
AnchorPoint: "bottom" 370 -408 basechar 0
LayerCount: 3
Fore
SplineSet
0 157 m 0
 129 82 277 39 363 22 c 0
 449 5 521 0 624 0 c 1
 624 370 l 1
 555 370 477 376 387 386 c 0
 297 396 167 425 0 474 c 1
 0 157 l 0
370 780 m 0
 456 786 604 801 691 797 c 0
 778 793 865.291015625 758.446289062 916 725 c 0
 963 694 1002 625 1002 572 c 0
 1002 496 936.428710938 428.993164062 860 397 c 0
 817 379 672 369 624 370 c 1
 624 0 l 0
 954 0 1017 10 1170 100 c 4
 1324.29589844 190.762695312 1410 365 1410 573 c 0
 1410 781 1337 934 1180 1020 c 0
 1023 1106 838 1144 630 1144 c 0
 527 1144 456 1143 370 1133 c 0
 370 780 l 0
EndSplineSet
EndChar

StartChar: head.u
Encoding: 235 -1 74
Width: 1040
VWidth: 2450
Flags: HW
LayerCount: 3
Fore
SplineSet
1040 780 m 0
 954 786 806 801 719 797 c 0
 632 793 545 758 494 725 c 0
 447 694 408 625 408 572 c 0
 408 496 474 430 550 397 c 0
 593 379 738 369 786 370 c 1
 786 0 l 0
 456 0 393 10 240 100 c 4
 85.7041015625 190.762695312 0 364 0 572 c 0
 0 780 73 934 230 1020 c 0
 387 1106 572 1144 780 1144 c 0
 883 1144 954 1143 1040 1133 c 0
 1040 780 l 0
EndSplineSet
EndChar

StartChar: head.s.b
Encoding: 407 -1 75
Width: 507
VWidth: 2450
Flags: HW
LayerCount: 3
Fore
SplineSet
519 1040 m 5
 519 624 l 4
 451 623 381 617 312 610 c 4
 243 603 139 579 0 546 c 5
 0 911 0 910 0 1312 c 4
 0 1714 0 687 0 1077 c 5
 103 1077 105 1077 208 1077 c 4
 311 1077 313 1077 416 1077 c 5
 416 1617 l 2
 416 1617 416 1183 416 1040 c 5
 442 1040 442 1040 468 1040 c 4
 494 1040 493 1040 519 1040 c 5
EndSplineSet
Validated: 37
EndChar

StartChar: chain.u.f2
Encoding: 323 -1 76
Width: 482
VWidth: 2450
Flags: HW
AnchorPoint: "top" -538 1401 basechar 0
LayerCount: 3
Fore
SplineSet
-208 365 m 0
 494 365 l 1
 494 0 l 1
 -624 0 l 1
 -272 337 l 1
 -857 337 l 1
 -857 572 l 1
 -833 572 l 1
 -833 503 -780 449 -675 416 c 0
 -570 383 -416 365 -208 365 c 0
EndSplineSet
Validated: 1
EndChar

StartChar: chain.u.b
Encoding: 285 -1 77
Width: -22
VWidth: 2450
Flags: HW
AnchorPoint: "top" -538 1401 basechar 0
LayerCount: 3
Fore
SplineSet
-25 416 m 0
 -17 414 l 1
 -17 0 l 1
 -624 0 l 1
 -272 337 l 1
 -857 337 l 1
 -857 572 l 1
 -833 572 l 1
 -806 461 -712 437 -641 427 c 4
 -517 410 -287 412 -25 416 c 0
EndSplineSet
Validated: 33
EndChar

StartChar: join.a.bottom
Encoding: 257 -1 78
Width: 918
VWidth: 1407
Flags: W
HStem: 0 370<177 743>
AnchorPoint: "top" 186 1486 basechar 0
LayerCount: 3
Fore
SplineSet
743 370 m 1
 918 0 l 1
 0 0 l 1
 177 370 l 1
 743 370 l 1
EndSplineSet
Validated: 1
Position2: "spacing_from_head.u" dx=0 dy=0 dh=-650 dv=0
Position2: "spacing_to_tail.c" dx=-600 dy=0 dh=-600 dv=0
Position2: "spacing_from_head.c" dx=0 dy=0 dh=-600 dv=0
Position2: "spacing_from_head.a" dx=0 dy=0 dh=-720 dv=0
Position2: "spacing_to_tail.a" dx=-720 dy=0 dh=-720 dv=0
EndChar

StartChar: join.a.top
Encoding: 256 -1 79
Width: 278
VWidth: 1407
Flags: W
HStem: 669 371<55 241>
VStem: 55 186<924.315 1040>
AnchorPoint: "top" 111 1486 basechar 0
LayerCount: 3
Fore
SplineSet
241 1040 m 1
 278 669 l 1
 0 669 l 1
 55 1040 l 1
 241 1040 l 1
EndSplineSet
Validated: 1
Position2: "spacing_from_head.a" dx=0 dy=0 dh=-100 dv=0
EndChar

StartChar: join.o.top
Encoding: 254 -1 80
Width: 918
VWidth: 1407
Flags: W
HStem: 669 371<177 742>
AnchorPoint: "top" 241 1486 basechar 0
LayerCount: 3
Fore
SplineSet
742 669 m 1
 177 669 l 1
 0 1040 l 5
 918 1040 l 5
 742 669 l 1
EndSplineSet
Validated: 1
Position2: "spacing_from_head.o" dx=0 dy=0 dh=-760 dv=0
Position2: "spacing_to_tail.o" dx=-720 dy=0 dh=-720 dv=0
Position2: "go_down" dx=0 dy=-669 dh=0 dv=0
EndChar

StartChar: middle.s
Encoding: 364 -1 81
Width: 370
VWidth: 2450
Flags: W
HStem: 1031 463<0 370>
VStem: 0 370<1031 1494>
LayerCount: 3
Fore
SplineSet
370 1494 m 5
 370 1031 l 1
 0 1031 l 1
 0 1494 l 1
 370 1494 l 5
EndSplineSet
Validated: 1
MultipleSubs2: "consonnant.u2" middle.s middle.u
Position2: "spacing_from_head.a" dx=0 dy=0 dh=-370 dv=0
MultipleSubs2: "consonnant.b" middle.s middle.b
MultipleSubs2: "consonnant.c" middle.s below.s.c
MultipleSubs2: "chain.f" middle.s
MultipleSubs2: "chain.n" middle.s
MultipleSubs2: "consonnant.o" middle.s below.s
MultipleSubs2: "tail.extend" middle.s below.s
EndChar

StartChar: below.s
Encoding: 365 -1 82
Width: 370
VWidth: 2450
Flags: HW
HStem: 0 21G<0 370> 0 21G<0 370> 1020 20G<0 370>
VStem: 0 370<0 1040>
LayerCount: 3
Fore
SplineSet
370 1040 m 5xb0
 370 0 l 1
 0 0 l 1
 0 1040 l 5
 370 1040 l 5xb0
EndSplineSet
Substitution2: "tail.consonnants" tail.s
Position2: "spacing_to_tail.a" dx=-360 dy=0 dh=-360 dv=0
MultipleSubs2: "consonnant.c" below.s.c
Position2: "spacing_from_head.o" dx=0 dy=0 dh=-370 dv=0
MultipleSubs2: "consonnant.a" layer.go_far_up
MultipleSubs2: "lowtail" tail.s
Substitution2: "tail.sp" tail.s.p
MultipleSubs2: "tail.extend" below.s tail.s
EndChar

StartChar: tail.s
Encoding: 366 -1 83
Width: 370
VWidth: 2450
Flags: HW
HStem: -24 24G<0 371> -24 24G<0 371>
VStem: 0 370<-872 0>
LayerCount: 3
Fore
SplineSet
370 5 m 1xa0
 370 -680 l 5
 0 -680 l 5
 0 5 l 1
 370 5 l 1xa0
EndSplineSet
Validated: 1
Position2: "spacing_to_tail.o" dx=-372 dy=0 dh=-372 dv=0
EndChar

StartChar: head.t.a
Encoding: 305 -1 84
Width: 2080
VWidth: 2450
Flags: W
HStem: 0 370<934.979 1144> 1710 370<0 823>
VStem: 327 419<551.637 1041.85>
LayerCount: 3
Fore
SplineSet
0 2080 m 1
 2080 2080 l 1
 1700 1908 1413 1754 1188 1546 c 0
 963 1338 795 1125 762 953 c 0
 750 894 746 834 746 778 c 0
 746 669 768 572 813 516 c 0
 882 430 972 370 1144 370 c 1
 1144 0 l 1
 903 0 712 49 555 188 c 0
 398 327 327 537 327 745 c 0
 327 917 355 1082 447 1252 c 0
 541 1424 653 1570 823 1710 c 1
 0 1710 l 1
 0 2080 l 1
EndSplineSet
Validated: 1
Position2: "spacing_from_head.a" dx=0 dy=0 dh=-950 dv=0
EndChar

StartChar: roundable.s
Encoding: 348 -1 85
Width: 1232
VWidth: 1407
Flags: W
HStem: -18 252<396.087 781.224> 937 21G<850 921.674> 1065 252<426.889 779.901>
VStem: 118 284<856.35 1030.08> 811 285<271.86 448.195>
LayerCount: 3
Fore
SplineSet
1096 384 m 2
 1096 127 898 -18 618 -18 c 0
 421 -18 223 50 66 189 c 1
 235 391 l 1
 352 294 476 234 624 234 c 0
 741 234 811 281 811 356 c 2
 811 360 l 2
 811 433 768 470 550 525 c 0
 288 591 118 667 118 924 c 2
 118 926 l 2
 118 1161 305 1317 572 1317 c 0
 761 1317 922 1258 1055 1152 c 1
 908 937 l 1
 792 1017 680 1065 571 1065 c 0
 462 1065 402 1016 402 953 c 2
 402 949 l 2
 402 864 457 835 682 778 c 0
 945 709 1096 614 1096 388 c 2
 1096 384 l 2
EndSplineSet
Validated: 1
MultipleSubs2: "consonnant.o" middle.s below.s
MultipleSubs2: "consonnant.a" middle.s.round.head.a
EndChar

StartChar: ts
Encoding: 380 -1 86
Width: 1901
VWidth: 2450
Flags: W
HStem: -18 252<1088.4 1473.17> 0 21G<486 717> 0 21G<486 717> 937 21G<1541 1612.86> 1065 252<1132.56 1468.66> 1088 211<74 486 717 1128>
VStem: 486 231<0 1088> 811 285<856.35 1039.78> 1503 284<271.86 448.195>
LayerCount: 3
Fore
SplineSet
1787 384 m 2x9b80
 1787 127 1590 -18 1310 -18 c 0
 1113 -18 917 50 760 189 c 1
 927 391 l 1
 1044 294 1168 234 1316 234 c 0
 1433 234 1503 281 1503 356 c 2
 1503 360 l 2
 1503 433 1460 470 1242 525 c 0
 980 591 811 667 811 924 c 2
 811 926 l 2
 811 1161 1000 1317 1267 1317 c 0
 1456 1317 1615 1258 1748 1152 c 1
 1599 937 l 1
 1483 1017 1371 1065 1262 1065 c 0
 1153 1065 1096 1016 1096 953 c 2
 1096 949 l 2
 1096 864 1151 835 1376 778 c 0
 1639 709 1787 614 1787 388 c 2
 1787 384 l 2x9b80
717 1088 m 1x5780
 717 0 l 1
 486 0 l 1
 486 1088 l 1
 74 1088 l 1
 74 1299 l 1
 1128 1299 l 1
 1128 1088 l 1
 717 1088 l 1x5780
EndSplineSet
Validated: 5
LCarets2: 1 0
MultipleSubs2: "consonnant.o" above.ts below.s
MultipleSubs2: "consonnant.a" above.ts
MultipleSubs2: "tail.extend" above.ts below.s
Ligature2: ">>CLUSTERING<<" t s
EndChar

StartChar: middle.t.c
Encoding: 308 -1 87
Width: 1129
VWidth: 2450
Flags: HW
LayerCount: 3
Fore
SplineSet
951 846 m 2
 464 618 l 0
 465 890 631 1114 739 1232 c 0
 830 1332 931 1449 1198 1710 c 1
 572 1715 l 0
 0 1710 l 1
 0 1897 l 0
 0 2080 l 5
 519 2080 1386 2080 2080 2080 c 1
 951 846 l 2
EndSplineSet
Validated: 1
EndChar

StartChar: st
Encoding: 381 -1 88
Width: 1808
VWidth: 2450
Flags: HW
HStem: -18 252<396 780> 0 38G<1068 1298> 0 38G<1068 1298> 937 38G<851 935> 1065 252<428 653> 1088 212<1055 1068 1298 1708>
VStem: 118 284<855 1031> 1068 27<127 615>
LayerCount: 3
Fore
SplineSet
1298 1088 m 1x57
 1298 0 l 1
 1068 0 l 1
 1068 1088 l 1
 654 1088 l 1
 654 1299 l 1
 1708 1299 l 1
 1708 1088 l 1
 1298 1088 l 1x57
1096 384 m 2
 1096 127 898 -18 618 -18 c 0
 421 -18 223 50 66 189 c 1
 235 391 l 1
 352 294 476 234 624 234 c 0
 741 234 811 281 811 356 c 2
 811 360 l 2
 811 433 768 470 550 525 c 0
 288 591 118 667 118 924 c 2
 118 926 l 2
 118 1161 305 1317 572 1317 c 0
 761 1317 922 1258 1055 1152 c 1
 908 937 l 1
 792 1017 680 1065 571 1065 c 0x9b
 462 1065 402 1016 402 953 c 2
 402 949 l 2
 402 864 457 835 682 778 c 0
 945 709 1096 614 1096 388 c 2
 1096 384 l 2
EndSplineSet
Validated: 5
MultipleSubs2: "o_C__" above.s middle.t
MultipleSubs2: "a_C__" above.s middle.t
LCarets2: 1 0
MultipleSubs2: "__C" above.s middle.t
Ligature2: ">>CLUSTERING<<" s t
EndChar

StartChar: middle.t
Encoding: 309 -1 89
Width: 2080
VWidth: 2450
Flags: W
HStem: 0 21G<157 177.501> 1300 21G<0 182.623>
LayerCount: 3
Fore
SplineSet
0 1670 m 5
 2080 1876 l 1
 157 0 l 1
 157 501 l 1
 1114 1422 l 1
 0 1300 l 1
 0 1670 l 5
EndSplineSet
Validated: 1
MultipleSubs2: "hightail" f tail.t
MultipleSubs2: "lowtail" F chain.f2.t
MultipleSubs2: "consonnant.b" middle.t.b
MultipleSubs2: "consonnant.o" middle.t.o
MultipleSubs2: "consonnant.a" middle.t.a
EndChar

StartChar: above.k.s
Encoding: 346 -1 91
Width: 1873
VWidth: 2450
Flags: HW
HStem: 1123 25G<32 1270>
LayerCount: 3
Fore
SplineSet
0 1123 m 1
 1299 2080 l 1
 1873 2080 l 1
 1113 1494 l 1
 1270 1494 l 5
 1270 1125 l 1
 0 1123 l 1
EndSplineSet
Validated: 1
EndChar

StartChar: above.d
Encoding: 350 -1 92
Width: 1995
VWidth: 2450
Flags: HW
HStem: 1778 411
LayerCount: 3
Fore
SplineSet
0 2003 m 5
 1995 2189 l 0
 1995 1986 l 1
 0 1790 l 5
 0 2003 l 5
EndSplineSet
Validated: 1
EndChar

StartChar: middle.k.a
Encoding: 387 -1 93
Width: 1621
VWidth: 2450
Flags: HW
LayerCount: 3
Fore
SplineSet
0 669 m 1
 1809 1615 l 0
 2181 1615 l 1
 2181 1336 l 1
 1578 1040 l 0
 1652 1040 l 1
 1652 669 l 1
 0 669 l 1
EndSplineSet
Validated: 1
EndChar

StartChar: sk
Encoding: 382 -1 94
Width: 2183
VWidth: 1407
Flags: HW
HStem: -18 252<402 788> 0 38G<909 1196 1721 2091> 0 38G<909 1196 1721 2091> 937 38G<855 938> 1065 252<434 782> 1262 37G<909 1196 1688 2068>
VStem: 124 284<855 1031> 909 287<731 937 1152 1299> 909 191<127 615>
LayerCount: 3
Fore
SplineSet
1101 384 m 2x9a80
 1101 127 904 -18 624 -18 c 0
 427 -18 230 50 73 189 c 1
 241 391 l 1
 358 294 481 234 629 234 c 0
 746 234 817 281 817 356 c 2
 817 360 l 2
 817 433 773 470 555 525 c 0
 293 591 124 667 124 924 c 2
 124 926 l 2
 124 1161 311 1317 578 1317 c 0
 767 1317 928 1258 1061 1152 c 1
 914 937 l 1
 798 1017 683 1065 574 1065 c 0
 465 1065 408 1016 408 953 c 2
 408 949 l 2
 408 864 465 835 690 778 c 0
 953 709 1101 614 1101 388 c 2
 1101 384 l 2x9a80
2091 0 m 1x57
 1748 0 l 1
 1345 553 l 1
 1196 397 l 1
 1196 0 l 1x57
 909 0 l 1x5680
 909 1299 l 1
 1196 1299 l 1
 1196 731 l 1
 1723 1299 l 1
 2068 1299 l 1
 1541 748 l 1
 2091 0 l 1x57
EndSplineSet
Validated: 5
MultipleSubs2: "__C" space.sk above.s middle.k
Ligature2: ">>CLUSTERING<<" s k
EndChar

StartChar: middle.k
Encoding: 384 -1 95
Width: 1018
VWidth: 2450
Flags: HW
HStem: 0 370<798 1207>
LayerCount: 3
Fore
SplineSet
1207 0 m 1
 0 0 l 1
 1207 1560 l 0
 1578 1560 l 1
 1578 1431 l 1
 798 370 l 1
 1207 370 l 1
 1207 0 l 1
EndSplineSet
Validated: 1
MultipleSubs2: "tail.extend" middle.k F
MultipleSubs2: "consonnant.o" middle.k join.e.bottom
MultipleSubs2: "consonnant.a" middle.k.a
EndChar

StartChar: above.t
Encoding: 310 -1 96
Width: 1466
VWidth: 1407
Flags: W
HStem: 890 21G<335 354.008> 1710 370<0 593>
AnchorPoint: "top" -863 1878 basechar 0
LayerCount: 3
Fore
SplineSet
0 2080 m 1
 1466 2080 l 5
 335 890 l 1
 335 1448 l 1
 593 1710 l 1
 0 1710 l 1
 0 2080 l 1
EndSplineSet
Validated: 1
EndChar

StartChar: top.ji
Encoding: 497 -1 98
Width: 730
VWidth: 1407
GlyphClass: 4
Flags: W
HStem: 137 275<294.68 435.32> 590 334<302.757 427.243> 1102 277<294.68 435.32>
VStem: 0 275<430.181 570.82 941.507 1084.22> 455 275<430.181 570.82 941.507 1084.22>
LayerCount: 3
Fore
SplineSet
108 758 m 1
 42 824 0 923 0 1015 c 0
 0 1107 42 1205 108 1271 c 0
 174 1337 273 1379 365 1379 c 0
 457 1379 556 1337 622 1271 c 0
 688 1205 730 1107 730 1015 c 0
 730 923 688 824 622 758 c 1
 688 692 730 593 730 501 c 0
 730 409 688 310 622 244 c 0
 556 178 457 137 365 137 c 0
 273 137 174 178 108 244 c 0
 42 310 0 409 0 501 c 0
 0 593 42 692 108 758 c 1
275 1012 m 0
 275 990 286 966 302 950 c 0
 318 934 343 924 365 924 c 0
 387 924 412 934 428 950 c 0
 444 966 455 990 455 1012 c 0
 455 1034 444 1060 428 1076 c 0
 412 1092 388 1102 365 1102 c 0
 342 1102 318 1092 302 1076 c 0
 286 1060 275 1034 275 1012 c 0
275 501 m 0
 275 479 286 453 302 437 c 0
 318 421 343 412 365 412 c 0
 387 412 412 421 428 437 c 0
 444 453 455 479 455 501 c 0
 455 523 444 547 428 563 c 0
 412 579 388 590 365 590 c 0
 342 590 318 579 302 563 c 0
 286 547 275 523 275 501 c 0
EndSplineSet
Validated: 1
Position2: "f2_accent_fix" dx=200 dy=360 dh=-730 dv=0
Position2: "f_accent_fix" dx=200 dy=1040 dh=-730 dv=0
Position2: "vhead_topfix" dx=423 dy=964 dh=-730 dv=0
Position2: "vchain.topfix" dx=-423 dy=964 dh=-730 dv=0
LCarets2: 1 730
EndChar

StartChar: sd
Encoding: 418 -1 99
Width: 1808
VWidth: 2450
Flags: HW
HStem: -18 252<396 780> 0 38G<1068 1298> 0 38G<1068 1298> 937 38G<851 935> 1065 252<428 653> 1088 212<1055 1068 1298 1708>
VStem: 118 284<855 1031> 1068 27<127 615>
LayerCount: 3
Fore
SplineSet
1298 1088 m 1x57
 1298 0 l 1
 1068 0 l 1
 1068 1088 l 1
 654 1088 l 1
 654 1299 l 1
 1708 1299 l 1
 1708 1088 l 1
 1298 1088 l 1x57
1096 384 m 2
 1096 127 898 -18 618 -18 c 0
 421 -18 223 50 66 189 c 1
 235 391 l 1
 352 294 476 234 624 234 c 0
 741 234 811 281 811 356 c 2
 811 360 l 2
 811 433 768 470 550 525 c 0
 288 591 118 667 118 924 c 2
 118 926 l 2
 118 1161 305 1317 572 1317 c 0
 761 1317 922 1258 1055 1152 c 1
 908 937 l 1
 792 1017 680 1065 571 1065 c 0x9b
 462 1065 402 1016 402 953 c 2
 402 949 l 2
 402 864 457 835 682 778 c 0
 945 709 1096 614 1096 388 c 2
 1096 384 l 2
EndSplineSet
Validated: 5
MultipleSubs2: "o_C__" above.s above.d.s middle.t
MultipleSubs2: "a_C__" above.s above.d.s middle.t
MultipleSubs2: "__C" above.s above.d.s middle.t
Ligature2: ">>CLUSTERING<<" s d
EndChar

StartChar: kt
Encoding: 419 -1 100
Width: 2340
VWidth: 2450
Flags: HW
HStem: 0 38G<486 717 1017 1304 1829 2199> 0 38G<486 717 1017 1304 1829 2199> 1088 212<74 486 717 1128>
VStem: 486 229<0 1088> 1017 287<0 397 731 1088> 1017 111<1088 1299>
LayerCount: 3
Fore
SplineSet
717 1088 m 1xb4
 717 0 l 1
 486 0 l 1
 486 1088 l 1
 74 1088 l 1
 74 1299 l 1
 1128 1299 l 1
 1128 1088 l 1
 717 1088 l 1xb4
2199 0 m 1
 1857 0 l 1
 1453 553 l 1
 1304 397 l 1
 1304 0 l 1
 1017 0 l 1xb8
 1017 1299 l 1xb4
 1304 1299 l 1
 1304 731 l 1xb8
 1830 1299 l 1
 2176 1299 l 1
 1646 748 l 1
 2199 0 l 1
EndSplineSet
Validated: 5
Ligature2: ">>CLUSTERING<<" k t
MultipleSubs2: "__C" above.k middle.t
EndChar

StartChar: above.d.s
Encoding: 349 -1 101
Width: 0
VWidth: 2450
Flags: HW
HStem: 1123 38G<165 1386>
LayerCount: 3
Fore
SplineSet
500 2050 m 5
 1995 2189 l 0
 1995 1986 l 1
 500 1837 l 5
 500 2050 l 5
EndSplineSet
Validated: 1
EndChar

StartChar: ji
Encoding: 498 -1 103
Width: 730
VWidth: 1407
Flags: W
HStem: 137 275<294.68 435.32> 590 334<302.757 427.243> 1102 277<294.68 435.32>
VStem: 0 275<430.181 570.82 941.507 1084.22> 455 275<430.181 570.82 941.507 1084.22>
LayerCount: 3
Fore
SplineSet
108 758 m 1
 42 824 0 923 0 1015 c 0
 0 1107 42 1205 108 1271 c 0
 174 1337 273 1379 365 1379 c 0
 457 1379 556 1337 622 1271 c 0
 688 1205 730 1107 730 1015 c 0
 730 923 688 824 622 758 c 1
 688 692 730 593 730 501 c 0
 730 409 688 310 622 244 c 0
 556 178 457 137 365 137 c 0
 273 137 174 178 108 244 c 0
 42 310 0 409 0 501 c 0
 0 593 42 692 108 758 c 1
275 1012 m 0
 275 990 286 966 302 950 c 0
 318 934 343 924 365 924 c 0
 387 924 412 934 428 950 c 0
 444 966 455 990 455 1012 c 0
 455 1034 444 1060 428 1076 c 0
 412 1092 388 1102 365 1102 c 0
 342 1102 318 1092 302 1076 c 0
 286 1060 275 1034 275 1012 c 0
275 501 m 0
 275 479 286 453 302 437 c 0
 318 421 343 412 365 412 c 0
 387 412 412 421 428 437 c 0
 444 453 455 479 455 501 c 0
 455 523 444 547 428 563 c 0
 412 579 388 590 365 590 c 0
 342 590 318 579 302 563 c 0
 286 547 275 523 275 501 c 0
EndSplineSet
Validated: 1
Ligature2: ">>ACCENT_MERGING<<" j i
Ligature2: ">>ACCENT_MERGING<<" j j
Substitution2: "top_accent" top.ji
MultipleSubs2: "extend.F" top.ji F
MultipleSubs2: "extend.f" top.ji f
MultipleSubs2: "extend.n" top.ji n
LCarets2: 1 0
EndChar

StartChar: middle.t.b
Encoding: 313 -1 109
Width: 1082
VWidth: 2450
Flags: HW
LayerCount: 3
Fore
SplineSet
2080 1876 m 4
 1000 1043 l 1
 1096 1040 l 0
 1096 669 l 0
 556 669 l 0
 353 1040 l 0
 835 1391 l 4
 0 1300 l 4
 0 1670 l 4
 2080 1876 l 4
EndSplineSet
Validated: 1
EndChar

StartChar: join.c.top_right
Encoding: 250 -1 110
Width: 474
VWidth: 1407
Flags: HW
HStem: 675 365
LayerCount: 3
Fore
SplineSet
176 669 m 1
 0 1040 l 1
 474 1040 l 1
 474 669 l 1
 139 427 l 1
 176 669 l 1
EndSplineSet
Validated: 1
Position2: "spacing_to_tail.c" dx=-200 dy=0 dh=-200 dv=0
EndChar

StartChar: join.c.top_left
Encoding: 249 -1 111
Width: 474
VWidth: 1407
Flags: HW
HStem: 675 365
LayerCount: 3
Fore
SplineSet
298 669 m 1
 335 427 l 1
 0 669 l 1
 0 1040 l 1
 474 1040 l 1
 298 669 l 1
EndSplineSet
Validated: 1
Position2: "spacing_from_head.c" dx=0 dy=0 dh=-200 dv=0
EndChar

StartChar: chain.o.c
Encoding: 281 -1 112
Width: 572
VWidth: 2450
Flags: HW
HStem: 0 38G<-204 -155> 0 38G<-204 -155>
VStem: 192 293<648 776>
AnchorPoint: "bottom" 10 -408 basechar 0
LayerCount: 3
Fore
SplineSet
572 353 m 0
 363 353 l 0
 319 553 191 669 0 669 c 1
 0 1040 l 1
 122 1040 233 1024 327 988 c 0
 418 955 504 895 572 835 c 1
 572 353 l 0
EndSplineSet
Validated: 1
Position2: "spacing_from_head.c" dx=0 dy=0 dh=-260 dv=0
EndChar

StartChar: chain.c.o
Encoding: 282 -1 113
Width: 572
VWidth: 2450
Flags: HW
HStem: 669 370<370 562>
VStem: -10 572<835 877>
LayerCount: 3
Fore
SplineSet
0 353 m 0
 0 835 l 1
 68 895 154 955 245 988 c 0
 339 1024 450 1040 572 1040 c 1
 572 669 l 1
 381 669 253 553 209 353 c 0
 0 353 l 0
EndSplineSet
Validated: 1
Position2: "spacing_to_tail.c" dx=-260 dy=0 dh=-260 dv=0
EndChar

StartChar: jl.large
Encoding: 510 -1 114
Width: 0
VWidth: 2450
Flags: HW
HStem: 137 274<-71 71> 590 276<-62 62>
VStem: -365 274<429 572> 90 274<429 572>
LayerCount: 3
Fore
SplineSet
-1414 -678 m 0
 -1480 -744 -1580 -786 -1672 -786 c 0
 -1764 -786 -1864 -744 -1930 -678 c 0
 -1996 -612 -2036 -513 -2036 -421 c 0
 -2036 -329 -1996 -230 -1930 -164 c 0
 -1864 -98 -1764 -57 -1672 -57 c 0
 -1580 -57 -1480 -98 -1414 -164 c 0
 -1348 -230 -1309 -329 -1309 -421 c 0
 -1309 -513 -1348 -612 -1414 -678 c 0
-1760 -422 m 0
 -1760 -444 -1751 -470 -1735 -486 c 0
 -1719 -502 -1694 -512 -1672 -512 c 0
 -1650 -512 -1626 -502 -1610 -486 c 0
 -1594 -470 -1584 -444 -1584 -422 c 0
 -1584 -400 -1594 -375 -1610 -359 c 0
 -1626 -343 -1649 -333 -1672 -333 c 0
 -1695 -333 -1719 -343 -1735 -359 c 0
 -1751 -375 -1760 -400 -1760 -422 c 0
-780 261 m 1
 780 261 l 1
 780 0 l 1
 -780 0 l 1
 -780 261 l 1
EndSplineSet
Validated: 1
Position2: "vchain.topfix" dx=0 dy=1170 dh=0 dv=0
EndChar

StartChar: il.large
Encoding: 511 -1 115
Width: 0
VWidth: 2450
GlyphClass: 4
Flags: HW
HStem: 0 261<-817 780>
LayerCount: 3
Fore
SplineSet
257 486 m 0
 191 420 92 379 0 379 c 0
 -92 379 -191 420 -257 486 c 0
 -323 552 -365 651 -365 743 c 0
 -365 835 -323 934 -257 1000 c 0
 -191 1066 -92 1107 0 1107 c 0
 92 1107 191 1066 257 1000 c 0
 323 934 365 835 365 743 c 0
 365 651 323 552 257 486 c 0
-90 742 m 0
 -90 720 -79 695 -63 679 c 0
 -47 663 -22 653 0 653 c 0
 22 653 47 663 63 679 c 0
 79 695 90 720 90 742 c 0
 90 764 79 788 63 804 c 0
 47 820 23 829 0 829 c 0
 -23 829 -47 820 -63 804 c 0
 -79 788 -90 764 -90 742 c 0
-780 261 m 1
 780 261 l 1
 780 0 l 1
 -780 0 l 1
 -780 261 l 1
EndSplineSet
Validated: 1
Position2: "vchain.topfix" dx=0 dy=1170 dh=0 dv=0
Position2: "vhead_topfix" dx=761 dy=1170 dh=0 dv=0
Ligature2: ">>ACCENT_MERGING<<" i l.large
LCarets2: 1 0
EndChar

StartChar: join.e.bottom
Encoding: 248 -1 116
Width: 556
VWidth: 1407
Flags: HW
HStem: 0 370<0 556>
VStem: 0 556<0 370>
LayerCount: 3
Fore
SplineSet
556 370 m 1
 556 0 l 1
 0 0 l 1
 0 370 l 1
 556 370 l 1
EndSplineSet
Validated: 1
Position2: "go_mid" dx=0 dy=1040 dh=0 dv=0
Position2: "go_far_up" dx=0 dy=1040 dh=0 dv=0
EndChar

StartChar: below.s.c
Encoding: 247 -1 117
Width: 370
VWidth: 1407
Flags: W
HStem: 669 376<0 370>
VStem: 0 370<669 1045>
LayerCount: 3
Fore
SplineSet
0 1045 m 1
 370 1045 l 1
 370 669 l 1
 0 669 l 1
 0 1045 l 1
EndSplineSet
Validated: 1
Position2: "spacing_from_head.c" dx=0 dy=0 dh=-370 dv=0
EndChar

StartChar: below.c.s
Encoding: 246 -1 118
Width: 0
VWidth: 1407
Flags: HW
HStem: 0 38G<0 365> 0 38G<0 365>
VStem: 0 365<0 980>
LayerCount: 3
Fore
SplineSet
0 632 m 1xa0
 370 632 l 1
 370 0 l 1
 0 0 l 1
 0 632 l 1xa0
EndSplineSet
Validated: 1
Position2: "spacing_to_tail.c" dx=-370 dy=0 dh=-370 dv=0
EndChar

StartChar: tail.s.p
Encoding: 367 -1 119
Width: 639
VWidth: 1407
Flags: HW
HStem: 0 38G<309 673> 0 38G<309 673>
VStem: 309 365<0 980>
LayerCount: 3
Fore
SplineSet
668 937 m 1xa0
 920 960 l 1
 302 1194 l 0
 27 1073 0 776 0 535 c 0
 0 475 2 419 2 370 c 0
 3 -680 l 1
 373 -680 l 1
 372 370 l 0
 372 805 423 911 668 937 c 1xa0
EndSplineSet
Validated: 9
EndChar

StartChar: middle.t.s
Encoding: 311 -1 120
Width: 525
VWidth: 2450
Flags: HW
LayerCount: 3
Fore
SplineSet
529 798 m 1
 157 1040 l 1
 745 1389 l 1
 0 1299 l 1
 0 1648 l 1
 2080 1876 l 1
 529 798 l 1
EndSplineSet
Validated: 1
EndChar

StartChar: kts
Encoding: 420 -1 121
Width: 2067
VWidth: 2450
Flags: HW
HStem: -18 252<1315 1590> 0 38G<157 443 968 1337> 0 38G<157 443 968 1337> 937 38G<1659 1742> 1065 252<1284 1585> 1262 37G<157 443 935 1315>
VStem: 157 287<0 397 731 1299> 1621 284<272 449>
LayerCount: 3
Fore
SplineSet
1904 384 m 2x9b
 1904 127 1707 -18 1427 -18 c 0
 1230 -18 1034 50 877 189 c 1
 1045 391 l 1
 1162 294 1285 234 1433 234 c 0
 1550 234 1621 281 1621 356 c 2
 1621 360 l 2
 1621 433 1577 470 1359 525 c 0
 1097 591 927 667 927 924 c 2
 927 926 l 2
 927 1161 1115 1317 1382 1317 c 0
 1571 1317 1733 1258 1866 1152 c 1
 1717 937 l 1
 1601 1017 1488 1065 1379 1065 c 0
 1270 1065 1213 1016 1213 953 c 2
 1213 949 l 2
 1213 864 1267 835 1492 778 c 0
 1755 709 1904 614 1904 388 c 2
 1904 384 l 2x9b
1337 0 m 1x57
 996 0 l 1
 592 553 l 1
 443 397 l 1
 443 0 l 1
 157 0 l 1
 157 1299 l 1
 443 1299 l 1
 443 731 l 1
 969 1299 l 1
 1315 1299 l 1
 786 748 l 1
 1337 0 l 1x57
EndSplineSet
Validated: 5
Ligature2: ">>CLUSTERING<<" k t s
EndChar

StartChar: ds
Encoding: 421 -1 122
Width: 1481
VWidth: 1407
Flags: HW
HStem: 0 38G<157 189> 0 38G<157 189> 1715 365<0 1196> 2451 365<0 1768>
LayerCount: 3
Fore
SplineSet
1353 651 m 2
 1353 286 1071 0 663 0 c 2
 157 0 l 1
 157 1299 l 1
 663 1299 l 2
 1071 1299 1353 1018 1353 653 c 2
 1353 651 l 2
1054 647 m 2
 1054 651 l 2
 1054 880 897 1042 663 1042 c 2
 443 1042 l 1
 443 257 l 1
 663 257 l 2
 897 257 1054 418 1054 647 c 2
EndSplineSet
Validated: 1
MultipleSubs2: "__C" above.d middle.t.s below.s
Ligature2: ">>CLUSTERING<<" d s
EndChar

StartChar: head.t.c
Encoding: 314 -1 123
Width: 1129
VWidth: 2450
Flags: W
HStem: 1715 365<0 1198>
LayerCount: 3
Fore
SplineSet
951 846 m 2
 464 618 l 0
 465 890 631 1114 739 1232 c 4
 830 1332 931 1454 1198 1715 c 1
 572 1715 l 0
 0 1715 l 1
 0 1897 l 0
 0 2080 l 1
 519 2080 1386 2080 2080 2080 c 1
 951 846 l 2
EndSplineSet
Validated: 1
EndChar

StartChar: top.d
Encoding: 351 -1 126
Width: 0
VWidth: 2450
Flags: HW
HStem: 0 261<-817 780>
LayerCount: 3
Fore
SplineSet
-719 1390 m 5
 800 1390 l 1
 800 1170 l 1
 -719 1170 l 5
 -719 1390 l 5
EndSplineSet
Validated: 1
EndChar

StartChar: bottom.j
Encoding: 495 -1 128
Width: 0
VWidth: 1407
GlyphClass: 4
Flags: W
HStem: 137 274<-71 71> 590 276<-62 62>
VStem: -365 274<429 572> 90 274<429 572>
AnchorPoint: "bottom" 0 501 mark 0
LayerCount: 3
Fore
SplineSet
257 244 m 4
 191 178 92 137 0 137 c 4
 -92 137 -191 178 -257 244 c 4
 -323 310 -365 409 -365 501 c 4
 -365 593 -323 692 -257 758 c 4
 -191 824 -92 865 0 865 c 4
 92 865 191 824 257 758 c 4
 323 692 365 593 365 501 c 4
 365 409 323 310 257 244 c 4
-90 501 m 4
 -90 479 -79 453 -63 437 c 4
 -47 421 -22 412 0 412 c 4
 22 412 47 421 63 437 c 4
 79 453 90 479 90 501 c 4
 90 523 79 547 63 563 c 4
 47 579 23 590 0 590 c 4
 -23 590 -47 579 -63 563 c 4
 -79 547 -90 523 -90 501 c 4
EndSplineSet
Validated: 1
Position2: "go_mid" dx=0 dy=1040 dh=0 dv=0
Position2: "move.cjs" dx=-160 dy=0 dh=0 dv=0
MultipleSubs2: "connect.o_n" bottom.j join.o.top
MultipleSubs2: "connect.a_n" bottom.j join.a.bottom
EndChar

StartChar: tk
Encoding: 422 -1 129
Width: 2340
VWidth: 2450
Flags: W
HStem: 0 38G<486 717 1017 1304 1829 2199> 0 38G<486 717 1017 1304 1829 2199> 1088 212<74 486 717 1128>
VStem: 486 229<0 1088> 1017 287<0 397 731 1088> 1017 111<1088 1299>
LayerCount: 3
Fore
SplineSet
717 1088 m 1xb4
 717 0 l 1
 486 0 l 1
 486 1088 l 1
 74 1088 l 1
 74 1299 l 1
 1128 1299 l 1
 1128 1088 l 1
 717 1088 l 1xb4
2199 0 m 1
 1857 0 l 1
 1453 553 l 1
 1304 397 l 1
 1304 0 l 1
 1017 0 l 1xb8
 1017 1299 l 1xb4
 1304 1299 l 1
 1304 731 l 1xb8
 1830 1299 l 1
 2176 1299 l 1
 1646 748 l 1
 2199 0 l 1
EndSplineSet
Validated: 5
MultipleSubs2: ">>COMPOUND<<" t k f
Ligature2: ">>CLUSTERING<<" t i k
EndChar

StartChar: join.o.bottom
Encoding: 423 -1 130
Width: 1337
VWidth: 1178
Flags: HW
HStem: 0 251<434 941> 535 237<434 872> 1049 251<434 876>
VStem: 157 278<251 535 774 1049> 904 284<811 1010> 976 284<293 500>
LayerCount: 3
Fore
SplineSet
2298 356 m 2xf4
 2298 119 2104 0 1811 0 c 2
 1194 0 l 1
 1194 1299 l 1
 1797 1299 l 2
 2064 1299 2225 1166 2225 963 c 2
 2225 958 l 2xf8
 2225 812 2146 732 2054 679 c 1
 2205 622 2298 534 2298 360 c 2
 2298 356 l 2xf4
1941 909 m 2
 1941 915 l 2
 1941 1000 1874 1049 1754 1049 c 2
 1471 1049 l 1
 1471 774 l 1
 1734 774 l 2
 1861 774 1941 812 1941 909 c 2
2013 391 m 2xf4
 2013 396 l 2
 2013 483 1947 535 1801 535 c 2
 1471 535 l 1
 1471 251 l 1
 1811 251 l 2
 1938 251 2013 294 2013 391 c 2xf4
1238 545 m 2
 1238 235 995 -18 659 -18 c 0
 323 -18 82 231 82 541 c 2
 82 545 l 2
 82 855 326 1106 662 1106 c 0
 998 1106 1238 856 1238 546 c 2
 1238 545 l 2
988 541 m 2
 988 545 l 2
 988 732 851 886 659 886 c 0
 467 886 332 733 332 546 c 2
 332 545 l 2
 332 358 470 202 662 202 c 0
 854 202 988 354 988 541 c 2
EndSplineSet
Validated: 5
EndChar

StartChar: bottom.h
Encoding: 500 -1 131
Width: 365
VWidth: 1407
Flags: W
HStem: 0 468<0 365>
VStem: 0 365<0 468>
AnchorPoint: "bottom" 182 235 mark 0
LayerCount: 3
Fore
SplineSet
0 468 m 1
 365 468 l 1
 365 -212 l 5
 0 -212 l 5
 0 468 l 1
EndSplineSet
Validated: 1
EndChar

StartChar: li
Encoding: 512 -1 132
Width: 1421
VWidth: 2450
Flags: HW
HStem: -22 263<683 1074> 909 38G<1148 1232> 1059 263<674 1069>
VStem: 191 299<445 863>
LayerCount: 3
Fore
SplineSet
1108 589.19921875 m 0
 1042 523.19921875 943 482.19921875 851 482.19921875 c 0
 759 482.19921875 660 523.19921875 594 589.19921875 c 0
 528 655.19921875 486 754.19921875 486 846.19921875 c 0
 486 938.19921875 528 1037.19921875 594 1103.19921875 c 0
 660 1169.19921875 759 1210.19921875 851 1210.19921875 c 0
 943 1210.19921875 1042 1169.19921875 1108 1103.19921875 c 0
 1174 1037.19921875 1216 938.19921875 1216 846.19921875 c 0
 1216 754.19921875 1174 655.19921875 1108 589.19921875 c 0
761 845.19921875 m 0
 761 823.19921875 772 798.19921875 788 782.19921875 c 0
 804 766.19921875 829 756.19921875 851 756.19921875 c 0
 873 756.19921875 898 766.19921875 914 782.19921875 c 0
 930 798.19921875 941 823.19921875 941 845.19921875 c 0
 941 867.19921875 930 891.19921875 914 907.19921875 c 0
 898 923.19921875 874 932.19921875 851 932.19921875 c 0
 828 932.19921875 804 923.19921875 788 907.19921875 c 0
 772 891.19921875 761 867.19921875 761 845.19921875 c 0
0 867 m 17
 0 1370.40039062 363 1710.19921875 770 1710.19921875 c 0
 1052.01579335 1710.19921875 1223 1639.19921875 1421 1477.19921875 c 1
 1252 1278.19921875 l 1
 1096 1395.19921875 949.600585938 1425.59863281 779 1425.59863281 c 0
 512.400390625 1425.59863281 271.200195312 1174.19921875 271.200195312 862 c 1
 0 867 l 17
EndSplineSet
Validated: 1
Substitution2: "top_accent" top.li
Ligature2: ">>ACCENT_MERGING<<" l j
Ligature2: ">>ACCENT_MERGING<<" l i
LCarets2: 1 0
EndChar

StartChar: tail.q
Encoding: 503 -1 133
Width: 700
VWidth: 1407
Flags: W
HStem: 676 365<0 980>
LayerCount: 3
Fore
SplineSet
700 685 m 1
 700 320 l 1
 0 321 l 1
 0 685 l 1
 700 685 l 1
EndSplineSet
Validated: 1
Position2: "go_up_O" dx=0 dy=1380 dh=0 dv=0
Position2: "go_far_up" dx=0 dy=1040 dh=0 dv=0
Position2: "go_mid" dx=0 dy=1040 dh=0 dv=0
Position2: "move.q" dx=500 dy=0 dh=500 dv=0
Position2: "spacing_from_head.a" dx=-500 dy=0 dh=-700 dv=0
EndChar

StartChar: bottom.q
Encoding: 504 -1 134
Width: 700
VWidth: 1407
Flags: HW
HStem: 676 365<0 980>
LayerCount: 3
Fore
SplineSet
442 523 m 1
 700 265 l 1
 257 -178 l 1
 0 80 l 1
 442 523 l 1
EndSplineSet
Validated: 1
Position2: "spacing_from_head.a" dx=-200 dy=0 dh=-700 dv=0
EndChar

StartChar: hi
Encoding: 513 -1 135
Width: 729
VWidth: 1407
Flags: HW
HStem: 0 815<0 365>
VStem: 0 365<0 815>
LayerCount: 3
Fore
SplineSet
621 244 m 0
 555 178 457 137 365 137 c 4
 273 137 174 178 108 244 c 0
 42 310 0 409 0 501 c 0
 0 593 42 692 108 758 c 0
 174 824 273 865 365 865 c 0
 457 865 555 824 621 758 c 0
 687 692 729 593 729 501 c 0
 729 409 687 310 621 244 c 0
276 501 m 0
 276 479 285 453 301 437 c 0
 317 421 343 412 365 412 c 0
 387 412 410 421 426 437 c 0
 442 453 453 479 453 501 c 0
 453 523 442 547 426 563 c 0
 410 579 387 590 364 590 c 0
 341 590 317 579 301 563 c 0
 285 547 276 523 276 501 c 0
180 1800 m 1
 545 1800 l 1
 545 1010 l 1
 180 1010 l 1
 180 1800 l 1
EndSplineSet
Validated: 1
MultipleSubs2: "extend.n" top.hi n
MultipleSubs2: "extend.f" top.hi f
MultipleSubs2: "extend.F" top.hi F
Ligature2: ">>ACCENT_MERGING<<" h i
LCarets2: 1 0
Ligature2: ">>ACCENT_MERGING<<" h j
Substitution2: "top_accent" top.hi
EndChar

StartChar: top.hi
Encoding: 514 -1 136
Width: 730
VWidth: 1407
Flags: HW
HStem: 137 1153<182.215 543.137>
VStem: 0 729<314.322 687.678>
LayerCount: 3
Fore
SplineSet
276 501 m 0
 276 479 285 453 301 437 c 0
 317 421 343 412 365 412 c 0
 387 412 410 421 426 437 c 0
 442 453 453 479 453 501 c 0
 453 523 442 547 426 563 c 0
 410 579 387 590 364 590 c 0
 341 590 317 579 301 563 c 0
 285 547 276 523 276 501 c 0
547 814 m 1
 574 799 599 780 621 758 c 0
 687 692 730 593 730 501 c 0
 730 409 687 310 621 244 c 0
 555 178 457 137 365 137 c 0
 273 137 174 178 108 244 c 0
 42 310 0 409 0 501 c 0
 0 593 42 692 108 758 c 0
 130 780 155 799 182 814 c 1
 182 1120 l 1
 547 1120 l 1
 547 814 l 1
EndSplineSet
Validated: 1
Position2: "accent_t_fix" dx=650 dy=0 dh=0 dv=0
Position2: "accent_c_fix" dx=-150 dy=200 dh=0 dv=0
Position2: "accent_u_fix" dx=0 dy=200 dh=0 dv=0
Position2: "f_accent_fix" dx=200 dy=1040 dh=-730 dv=0
Position2: "f2_accent_fix" dx=200 dy=360 dh=-730 dv=0
Position2: "vchain.topfix" dx=-423 dy=1170 dh=-730 dv=0
Position2: "vhead_topfix" dx=423 dy=964 dh=-730 dv=0
EndChar

StartChar: J
Encoding: 126 74 137
Width: 730
VWidth: 2450
Flags: HW
HStem: 137 274<-331 -189> 590 276<-322 -198>
VStem: -625 274<429 572> -170 274<429 572>
LayerCount: 3
Fore
SplineSet
622 694 m 0
 556 628 457 587 365 587 c 0
 273 587 174 628 108 694 c 0
 42 760 0 859 0 951 c 0
 0 1043 42 1142 108 1208 c 0
 174 1274 273 1315 365 1315 c 0
 457 1315 556 1274 622 1208 c 0
 688 1142 730 1043 730 951 c 0
 730 859 688 760 622 694 c 0
275 951 m 0
 275 929 286 903 302 887 c 0
 318 871 343 862 365 862 c 0
 387 862 412 871 428 887 c 0
 444 903 455 929 455 951 c 0
 455 973 444 997 428 1013 c 0
 412 1029 388 1040 365 1040 c 0
 342 1040 318 1029 302 1013 c 0
 286 997 275 973 275 951 c 0
730 398 m 5
 730 137 l 5
 0 137 l 5
 0 398 l 5
 730 398 l 5
EndSplineSet
Validated: 1
EndChar

StartChar: H
Encoding: 127 72 138
Width: 729
VWidth: 1407
Flags: HW
HStem: 0 815<0 365>
VStem: 0 365<0 815>
LayerCount: 3
Fore
SplineSet
621 244 m 0
 555 178 457 137 365 137 c 4
 273 137 174 178 108 244 c 0
 42 310 0 409 0 501 c 0
 0 593 42 692 108 758 c 0
 174 824 273 865 365 865 c 0
 457 865 555 824 621 758 c 0
 687 692 729 593 729 501 c 0
 729 409 687 310 621 244 c 0
276 501 m 0
 276 479 285 453 301 437 c 0
 317 421 343 412 365 412 c 0
 387 412 410 421 426 437 c 0
 442 453 453 479 453 501 c 0
 453 523 442 547 426 563 c 0
 410 579 387 590 364 590 c 0
 341 590 317 579 301 563 c 0
 285 547 276 523 276 501 c 0
180 1800 m 1
 545 1800 l 1
 545 1010 l 1
 180 1010 l 1
 180 1800 l 1
EndSplineSet
Validated: 1
EndChar

StartChar: L
Encoding: 128 76 139
Width: 1250
VWidth: 2450
Flags: HW
HStem: 137 274<485 627> 590 276<494 618>
VStem: 191 274<429 572> 646 274<429 572>
LayerCount: 3
Fore
SplineSet
882 250 m 0
 816 184 717 143 625 143 c 0
 533 143 434 184 368 250 c 0
 302 316 260 415 260 507 c 0
 260 599 302 698 368 764 c 0
 434 830 533 871 625 871 c 0
 717 871 816 830 882 764 c 0
 948 698 990 599 990 507 c 0
 990 415 948 316 882 250 c 0
535 507 m 0
 535 485 546 459 562 443 c 0
 578 427 603 418 625 418 c 0
 647 418 672 427 688 443 c 0
 704 459 715 485 715 507 c 0
 715 529 704 553 688 569 c 0
 672 585 648 596 625 596 c 0
 602 596 578 585 562 569 c 0
 546 553 535 529 535 507 c 0
1250 1311 m 1
 1250 1050 l 1
 0 1050 l 1
 0 1311 l 1
 1250 1311 l 1
EndSplineSet
Validated: 1
EndChar

StartChar: top.li
Encoding: 515 -1 140
Width: 1156
VWidth: 2450
Flags: HW
HStem: 482 728<620.322 993.678> 1431 279<584.108 1034>
LayerCount: 3
Fore
SplineSet
329 758 m 1
 395 824 494 865 586 865 c 0
 678 865 777 824 843 758 c 0
 909 692 951 593 951 501 c 0
 951 409 909 310 843 244 c 0
 777 178 678 137 586 137 c 0
 494 137 395 178 329 244 c 1
 92.7490234375 490.7421875 0 715.0234375 0 897 c 0
 0 1183.34667969 231.080078125 1365 505 1365 c 0
 787 1365 958 1294 1156 1132 c 1
 987 933 l 1
 831 1050 672.244877453 1100.21463256 496 1059 c 0
 324.94921875 1019 302.076171875 947.176757812 305.076171875 893.995117188 c 0
 309.112961774 822.434080622 329 758 329 758 c 1
496 500 m 0
 496 478 507 453 523 437 c 0
 539 421 564 411 586 411 c 0
 608 411 633 421 649 437 c 0
 665 453 676 478 676 500 c 0
 676 522 665 546 649 562 c 0
 633 578 609 587 586 587 c 0
 563 587 539 578 523 562 c 0
 507 546 496 522 496 500 c 0
EndSplineSet
Validated: 33
Position2: "f2_accent_fix" dx=200 dy=360 dh=-730 dv=0
Position2: "f_accent_fix" dx=200 dy=1040 dh=-730 dv=0
Position2: "vhead_topfix" dx=200 dy=964 dh=-1156 dv=0
Position2: "vchain.topfix" dx=-423 dy=1170 dh=-730 dv=0
EndChar

StartChar: I
Encoding: 129 73 141
Width: 1673
VWidth: 1407
Flags: W
HStem: 137 275<768.181 908.224> 590 275<768.18 908.224>
VStem: 0 265<140 865> 474 276<430.181 570.82> 927 276<430.181 570.82> 1412 261<137 865>
LayerCount: 3
Fore
SplineSet
4 865 m 1
 265 865 l 1
 265 137 l 1
 0 140 l 1
 4 865 l 1
1412 865 m 1
 1673 865 l 1
 1673 137 l 1
 1412 137 l 1
 1412 865 l 1
1095 244 m 0
 1029 178 931 137 839 137 c 4
 747 137 648 178 582 244 c 0
 516 310 474 409 474 501 c 0
 474 593 516 692 582 758 c 0
 648 824 747 865 839 865 c 0
 931 865 1029 824 1095 758 c 0
 1161 692 1203 593 1203 501 c 0
 1203 409 1161 310 1095 244 c 0
750 501 m 0
 750 479 759 453 775 437 c 0
 791 421 817 412 839 412 c 0
 861 412 884 421 900 437 c 0
 916 453 927 479 927 501 c 0
 927 523 916 547 900 563 c 0
 884 579 861 590 838 590 c 0
 815 590 791 579 775 563 c 0
 759 547 750 523 750 501 c 0
EndSplineSet
Validated: 1
EndChar

StartChar: Y
Encoding: 130 89 142
Width: 1673
VWidth: 1407
Flags: HW
HStem: 137 274<-829 -702> 590 276<-829 -705>
VStem: -1129 274<437 563> -678 274<437 563>
AnchorPoint: "top" 0 506 mark 0
LayerCount: 3
Fore
SplineSet
978 837 m 1
 1064 801 1139 727 1175 641 c 0
 1193 598 1204 550 1204 502 c 0
 1204 453 1193 405 1175 362 c 0
 1139 276 1064 201 978 165 c 0
 935 147 887 139 839 139 c 4
 791 139 743 147 700 165 c 0
 614 201 539 276 503 362 c 0
 485 405 474 453 474 502 c 0
 474 550 485 598 503 641 c 0
 539 726 612 801 697 837 c 0
 698 837 800 595 806 584 c 1
 786 574 768 557 758 535 c 0
 748 513 751 487 758 467 c 0
 765 447 786 426 806 419 c 0
 826 412 855 412 875 419 c 0
 895 426 916 447 923 467 c 0
 930 487 930 515 923 535 c 0
 916 555 895 576 875 583 c 0
 880 597 978 837 978 837 c 1
4 865 m 1
 265 865 l 1
 265 137 l 1
 0 140 l 1
 4 865 l 1
1412 865 m 1
 1673 865 l 1
 1673 137 l 1
 1412 137 l 1
 1412 865 l 1
EndSplineSet
Validated: 1
EndChar

StartChar: yi
Encoding: 516 -1 143
Width: 730
VWidth: 1407
Flags: W
HStem: 137 275<294.68 435.32> 1076 21G<420 447.897> 1102 277<294.68 467.328>
VStem: 0 275<430.181 570.82 943.68 1084.22> 455 275<430.181 570.82>
LayerCount: 3
Fore
SplineSet
302 950 m 1
 622 758 l 1
 688 692 730 593 730 501 c 0
 730 409 688 310 622 244 c 0
 556 178 457 137 365 137 c 0
 273 137 174 178 108 244 c 0
 42 310 0 409 0 501 c 0
 0 593 42 692 108 758 c 1
 42 824 0 923 0 1015 c 0
 0 1107 42 1205 108 1271 c 0
 174 1337 273 1379 365 1379 c 0
 457 1379 556 1337 622 1271 c 0
 428 1076 l 1
 412 1092 388 1102 365 1102 c 0
 342 1102 318 1092 302 1076 c 0
 286 1060 275 1034 275 1012 c 0
 275 990 286 966 302 950 c 1
275 501 m 0
 275 479 286 453 302 437 c 0
 318 421 343 412 365 412 c 0
 387 412 412 421 428 437 c 0
 444 453 455 479 455 501 c 0
 455 523 444 547 428 563 c 0
 412 579 388 590 365 590 c 0
 342 590 318 579 302 563 c 0
 286 547 275 523 275 501 c 0
EndSplineSet
Validated: 1
MultipleSubs2: "extend.F" top.yi F
MultipleSubs2: "extend.f" top.yi f
MultipleSubs2: "extend.n" top.yi n
Substitution2: "top_accent" top.yi
Ligature2: ">>ACCENT_MERGING<<" y j
Ligature2: ">>ACCENT_MERGING<<" y i
LCarets2: 1 0
EndChar

StartChar: iy
Encoding: 518 -1 144
Width: 730
VWidth: 1407
Flags: W
HStem: 137 275<294.68 465.247> 1102 277<294.68 435.32>
VStem: 0 275<430.181 568.644 941.507 1084.22> 455 275<941.507 1084.22>
LayerCount: 3
Fore
SplineSet
302 563 m 1
 286 547 275 523 275 501 c 0
 275 479 286 453 302 437 c 0
 318 421 343 412 365 412 c 0
 387 412 412 421 428 437 c 1
 622 244 l 0
 556 178 457 137 365 137 c 0
 273 137 174 178 108 244 c 0
 42 310 0 409 0 501 c 0
 0 593 42 692 108 758 c 1
 42 824 0 923 0 1015 c 0
 0 1107 42 1205 108 1271 c 0
 174 1337 273 1379 365 1379 c 0
 457 1379 556 1337 622 1271 c 0
 688 1205 730 1107 730 1015 c 0
 730 923 688 824 622 758 c 1
 302 563 l 1
275 1012 m 0
 275 990 286 966 302 950 c 0
 318 934 343 924 365 924 c 0
 387 924 412 934 428 950 c 0
 444 966 455 990 455 1012 c 0
 455 1034 444 1060 428 1076 c 0
 412 1092 388 1102 365 1102 c 0
 342 1102 318 1092 302 1076 c 0
 286 1060 275 1034 275 1012 c 0
EndSplineSet
Validated: 1
MultipleSubs2: "extend.F" top.iy F
MultipleSubs2: "extend.f" top.iy f
MultipleSubs2: "extend.n" top.iy n
Substitution2: "top_accent" top.iy
Ligature2: ">>ACCENT_MERGING<<" j y
Ligature2: ">>ACCENT_MERGING<<" i y
LCarets2: 1 0
EndChar

StartChar: top.yi
Encoding: 517 -1 145
Width: 730
VWidth: 1407
Flags: W
HStem: 1102 277<294.68 467.328>
VStem: 0 730<314.322 687.678> 0 275<943.68 1084.22>
LayerCount: 3
Fore
SplineSet
302 950 m 1xc0
 622 758 l 1
 688 692 730 593 730 501 c 0
 730 409 688 310 622 244 c 0
 556 178 457 137 365 137 c 0
 273 137 174 178 108 244 c 0
 42 310 0 409 0 501 c 0
 0 593 42 692 108 758 c 1
 42 824 0 923 0 1015 c 0xa0
 0 1107 42 1205 108 1271 c 0
 174 1337 273 1379 365 1379 c 0
 457 1379 556 1337 622 1271 c 0
 428 1076 l 1
 412 1092 388 1102 365 1102 c 0
 342 1102 318 1092 302 1076 c 0
 286 1060 275 1034 275 1012 c 0
 275 990 286 966 302 950 c 1xc0
275 501 m 0
 275 479 286 453 302 437 c 0
 318 421 343 412 365 412 c 0
 387 412 412 421 428 437 c 0
 444 453 455 479 455 501 c 0
 455 523 444 547 428 563 c 0
 412 579 388 590 365 590 c 0
 342 590 318 579 302 563 c 0
 286 547 275 523 275 501 c 0
EndSplineSet
Validated: 1
Position2: "accent_t_fix" dx=650 dy=0 dh=0 dv=0
Position2: "accent_c_fix" dx=-150 dy=200 dh=0 dv=0
Position2: "accent_u_fix" dx=0 dy=200 dh=0 dv=0
Position2: "f2_accent_fix" dx=200 dy=360 dh=-730 dv=0
Position2: "f_accent_fix" dx=200 dy=1040 dh=-730 dv=0
Position2: "vhead_topfix" dx=423 dy=964 dh=-730 dv=0
EndChar

StartChar: top.iy
Encoding: 519 -1 146
Width: 730
VWidth: 1407
Flags: W
HStem: 137 275<294.68 465.247> 1102 277<294.68 435.32>
VStem: 0 275<430.181 568.644 941.507 1084.22> 455 275<941.507 1084.22>
LayerCount: 3
Fore
SplineSet
302 563 m 1
 286 547 275 523 275 501 c 0
 275 479 286 453 302 437 c 0
 318 421 343 412 365 412 c 0
 387 412 412 421 428 437 c 1
 622 244 l 0
 556 178 457 137 365 137 c 0
 273 137 174 178 108 244 c 0
 42 310 0 409 0 501 c 0
 0 593 42 692 108 758 c 1
 42 824 0 923 0 1015 c 0
 0 1107 42 1205 108 1271 c 0
 174 1337 273 1379 365 1379 c 0
 457 1379 556 1337 622 1271 c 0
 688 1205 730 1107 730 1015 c 0
 730 923 688 824 622 758 c 1
 302 563 l 1
275 1012 m 0
 275 990 286 966 302 950 c 0
 318 934 343 924 365 924 c 0
 387 924 412 934 428 950 c 0
 444 966 455 990 455 1012 c 0
 455 1034 444 1060 428 1076 c 0
 412 1092 388 1102 365 1102 c 0
 342 1102 318 1092 302 1076 c 0
 286 1060 275 1034 275 1012 c 0
EndSplineSet
Validated: 1
Position2: "accent_t_fix" dx=650 dy=0 dh=0 dv=0
Position2: "accent_c_fix" dx=-150 dy=200 dh=0 dv=0
Position2: "accent_u_fix" dx=0 dy=200 dh=0 dv=0
Position2: "f2_accent_fix" dx=200 dy=360 dh=-730 dv=0
Position2: "f_accent_fix" dx=200 dy=1040 dh=-730 dv=0
Position2: "vhead_topfix" dx=423 dy=964 dh=-730 dv=0
EndChar

StartChar: middle.b
Encoding: 278 -1 147
Width: 611
VWidth: 2450
Flags: HW
HStem: 0 416<0 384>
VStem: 0 624<129 416>
LayerCount: 3
Fore
SplineSet
0 1040 m 0
 624 1040 l 1
 624 670 l 0
 624 665.169921875 437 686 0 650 c 4
 0 1040 l 0
EndSplineSet
EndChar

StartChar: chain.u2.n
Encoding: 234 -1 148
Width: 1040
VWidth: 2450
Flags: HW
HStem: 0 416<0 384>
VStem: 0 624<129 416>
AnchorPoint: "top" 0 1401 basechar 0
AnchorPoint: "bottom" 0 -408 basechar 0
LayerCount: 3
Fore
SplineSet
0 780 m 0
 86 786 234 801 321 797 c 0
 408 793 495.291424577 758.446081662 546 725 c 0
 593 694 632 625 632 572 c 0
 632 496 566.429120709 428.993585413 490 397 c 0
 447 379 302 369 254 370 c 1
 254 0 l 0
 584 0 647 10 800 100 c 4
 954.295898438 190.762695312 1040 364 1040 572 c 0
 1040 780 967 934 810 1020 c 0
 653 1106 468 1144 260 1144 c 0
 157 1144 86 1143 0 1133 c 0
 0 780 l 0
EndSplineSet
EndChar

StartChar: head.t.u
Encoding: 312 -1 149
Width: 880
VWidth: 2450
Flags: HW
LayerCount: 3
Fore
SplineSet
630 1215 m 4
 1120 1700 l 0
 0 1700 l 0
 0 2074 l 0
 2080 2080 l 0
 1112 1144 l 0
 880 780 l 4
 630 1215 l 4
EndSplineSet
EndChar

StartChar: middle.t.u
Encoding: 315 -1 150
Width: 880
VWidth: 2450
Flags: HW
LayerCount: 3
Fore
SplineSet
880 780 m 0
 1112 1144 l 0
 2080 1876 l 0
 0 1670 l 0
 0 1300 l 0
 810 1390 l 0
 630 1215 l 0
 880 780 l 0
EndSplineSet
EndChar

StartChar: middle.u
Encoding: 288 -1 151
Width: 370
VWidth: 2450
Flags: HW
HStem: 0 416<0 384>
VStem: 0 624<129 416>
LayerCount: 3
Fore
SplineSet
0 1040 m 0
 370 1040 l 1
 370 780 l 4
 228 766 69 742 0 730 c 4
 0 1040 l 0
EndSplineSet
EndChar

StartChar: chain.f.u2
Encoding: 232 -1 152
Width: 1410
VWidth: 2450
Flags: HW
HStem: 0 416<370 754>
VStem: 370 624<129 416>
AnchorPoint: "top" 370 1401 basechar 0
AnchorPoint: "bottom" 370 -408 basechar 0
LayerCount: 3
Fore
SplineSet
370 20 m 0
 452 4 521 0 624 0 c 1
 624 370 l 1
 555 370 460 375 370 385 c 0
 370 20 l 0
370 1040 m 0
 370 670 l 0
 584 670 613 692 713 710 c 0
 798.71484375 725.428710938 868.018300565 721.430795007 920 690 c 0
 963 664 1002 625 1002 572 c 0
 1002 496 936.428710938 428.993164062 860 397 c 0
 817 379 672 369 624 370 c 1
 624 0 l 0
 954 0 1016 10 1169 100 c 0
 1323.29589844 190.762695312 1410 364 1410 572 c 0
 1410 780 1312 954 1155 1040 c 0
 370 1040 l 0
EndSplineSet
EndChar
